<svg xmlns="http://www.w3.org/2000/svg" width="271" height="194" viewBox="0 0 271 194" fill="none">
  <path d="M-235.124 -240.09L-236.562 -242L-238 -240.09L-236.562 -238.18L-235.124 -240.09Z" fill="#005E00"/>
  <path d="M-217.048 -240.09L-218.486 -242L-219.924 -240.09L-218.486 -238.18L-217.048 -240.09Z" fill="#005E00"/>
  <path d="M-198.973 -240.09L-200.411 -242L-201.848 -240.09L-200.411 -238.18L-198.973 -240.09Z" fill="#005E00"/>
  <path d="M-180.897 -240.09L-182.335 -242L-183.773 -240.09L-182.335 -238.18L-180.897 -240.09Z" fill="#005E00"/>
  <path d="M-162.821 -240.09L-164.259 -242L-165.697 -240.09L-164.259 -238.18L-162.821 -240.09Z" fill="#005E00"/>
  <path d="M-144.745 -240.09L-146.183 -242L-147.621 -240.09L-146.183 -238.18L-144.745 -240.09Z" fill="#005E00"/>
  <path d="M-126.669 -240.09L-128.107 -242L-129.545 -240.09L-128.107 -238.18L-126.669 -240.09Z" fill="#005E00"/>
  <path d="M-108.594 -240.09L-110.032 -242L-111.47 -240.09L-110.032 -238.18L-108.594 -240.09Z" fill="#005E00"/>
  <path d="M-90.5179 -240.09L-91.9559 -242L-93.3938 -240.09L-91.9559 -238.18L-90.5179 -240.09Z" fill="#005E00"/>
  <path d="M-72.4421 -240.09L-73.88 -242L-75.3179 -240.09L-73.88 -238.18L-72.4421 -240.09Z" fill="#005E00"/>
  <path d="M-54.3664 -240.09L-55.8043 -242L-57.2422 -240.09L-55.8043 -238.18L-54.3664 -240.09Z" fill="#005E00"/>
  <path d="M-36.2905 -240.09L-37.7285 -242L-39.1664 -240.09L-37.7285 -238.18L-36.2905 -240.09Z" fill="#005E00"/>
  <path d="M-18.2147 -240.09L-19.6526 -242L-21.0905 -240.09L-19.6526 -238.18L-18.2147 -240.09Z" fill="#005E00"/>
  <path d="M-0.139023 -240.09L-1.57693 -242L-3.01486 -240.09L-1.57693 -238.18L-0.139023 -240.09Z" fill="#005E00"/>
  <path d="M17.9368 -240.09L16.4989 -242L15.061 -240.09L16.4989 -238.18L17.9368 -240.09Z" fill="#005E00"/>
  <path d="M36.0125 -240.09L34.5746 -242L33.1367 -240.09L34.5746 -238.18L36.0125 -240.09Z" fill="#005E00"/>
  <path d="M54.0883 -240.09L52.6504 -242L51.2125 -240.09L52.6504 -238.18L54.0883 -240.09Z" fill="#005E00"/>
  <path d="M72.164 -240.09L70.7261 -242L69.2881 -240.09L70.7261 -238.18L72.164 -240.09Z" fill="#005E00"/>
  <path d="M90.2398 -240.09L88.8019 -242L87.364 -240.09L88.8019 -238.18L90.2398 -240.09Z" fill="#005E00"/>
  <path d="M-235.124 -216.08L-236.562 -217.99L-238 -216.08L-236.562 -214.17L-235.124 -216.08Z" fill="#005E00"/>
  <path d="M-217.048 -216.08L-218.486 -217.99L-219.924 -216.08L-218.486 -214.17L-217.048 -216.08Z" fill="#005E00"/>
  <path d="M-198.973 -216.08L-200.411 -217.99L-201.848 -216.08L-200.411 -214.17L-198.973 -216.08Z" fill="#005E00"/>
  <path d="M-180.897 -216.08L-182.335 -217.99L-183.773 -216.08L-182.335 -214.17L-180.897 -216.08Z" fill="#005E00"/>
  <path d="M-162.821 -216.08L-164.259 -217.99L-165.697 -216.08L-164.259 -214.17L-162.821 -216.08Z" fill="#005E00"/>
  <path d="M-144.745 -216.08L-146.183 -217.99L-147.621 -216.08L-146.183 -214.17L-144.745 -216.08Z" fill="#005E00"/>
  <path d="M-126.669 -216.08L-128.107 -217.99L-129.545 -216.08L-128.107 -214.17L-126.669 -216.08Z" fill="#005E00"/>
  <path d="M-108.594 -216.08L-110.032 -217.99L-111.47 -216.08L-110.032 -214.17L-108.594 -216.08Z" fill="#005E00"/>
  <path d="M-90.5179 -216.08L-91.9559 -217.99L-93.3938 -216.08L-91.9559 -214.17L-90.5179 -216.08Z" fill="#005E00"/>
  <path d="M-72.4421 -216.08L-73.88 -217.99L-75.3179 -216.08L-73.88 -214.17L-72.4421 -216.08Z" fill="#005E00"/>
  <path d="M-54.3664 -216.08L-55.8043 -217.99L-57.2422 -216.08L-55.8043 -214.17L-54.3664 -216.08Z" fill="#005E00"/>
  <path d="M-36.2905 -216.08L-37.7285 -217.99L-39.1664 -216.08L-37.7285 -214.17L-36.2905 -216.08Z" fill="#005E00"/>
  <path d="M-18.2147 -216.08L-19.6526 -217.99L-21.0905 -216.08L-19.6526 -214.17L-18.2147 -216.08Z" fill="#005E00"/>
  <path d="M-0.139023 -216.08L-1.57693 -217.99L-3.01486 -216.08L-1.57693 -214.17L-0.139023 -216.08Z" fill="#005E00"/>
  <path d="M17.9368 -216.08L16.4989 -217.99L15.061 -216.08L16.4989 -214.17L17.9368 -216.08Z" fill="#005E00"/>
  <path d="M36.0125 -216.08L34.5746 -217.99L33.1367 -216.08L34.5746 -214.17L36.0125 -216.08Z" fill="#005E00"/>
  <path d="M54.0883 -216.08L52.6504 -217.99L51.2125 -216.08L52.6504 -214.17L54.0883 -216.08Z" fill="#005E00"/>
  <path d="M72.164 -216.08L70.7261 -217.99L69.2881 -216.08L70.7261 -214.17L72.164 -216.08Z" fill="#005E00"/>
  <path d="M90.2398 -216.08L88.8019 -217.99L87.364 -216.08L88.8019 -214.17L90.2398 -216.08Z" fill="#005E00"/>
  <path d="M-235.124 -192.07L-236.562 -193.98L-238 -192.07L-236.562 -190.16L-235.124 -192.07Z" fill="#005E00"/>
  <path d="M-217.048 -192.07L-218.486 -193.98L-219.924 -192.07L-218.486 -190.16L-217.048 -192.07Z" fill="#005E00"/>
  <path d="M-198.973 -192.07L-200.411 -193.98L-201.848 -192.07L-200.411 -190.16L-198.973 -192.07Z" fill="#005E00"/>
  <path d="M-180.897 -192.07L-182.335 -193.98L-183.773 -192.07L-182.335 -190.16L-180.897 -192.07Z" fill="#005E00"/>
  <path d="M-162.821 -192.07L-164.259 -193.98L-165.697 -192.07L-164.259 -190.16L-162.821 -192.07Z" fill="#005E00"/>
  <path d="M-144.745 -192.07L-146.183 -193.98L-147.621 -192.07L-146.183 -190.16L-144.745 -192.07Z" fill="#005E00"/>
  <path d="M-126.669 -192.07L-128.107 -193.98L-129.545 -192.07L-128.107 -190.16L-126.669 -192.07Z" fill="#005E00"/>
  <path d="M-108.594 -192.07L-110.032 -193.98L-111.47 -192.07L-110.032 -190.16L-108.594 -192.07Z" fill="#005E00"/>
  <path d="M-90.5179 -192.07L-91.9559 -193.98L-93.3938 -192.07L-91.9559 -190.16L-90.5179 -192.07Z" fill="#005E00"/>
  <path d="M-72.4421 -192.07L-73.88 -193.98L-75.3179 -192.07L-73.88 -190.16L-72.4421 -192.07Z" fill="#005E00"/>
  <path d="M-54.3664 -192.07L-55.8043 -193.98L-57.2422 -192.07L-55.8043 -190.16L-54.3664 -192.07Z" fill="#005E00"/>
  <path d="M-36.2905 -192.07L-37.7285 -193.98L-39.1664 -192.07L-37.7285 -190.16L-36.2905 -192.07Z" fill="#005E00"/>
  <path d="M-18.2147 -192.07L-19.6526 -193.98L-21.0905 -192.07L-19.6526 -190.16L-18.2147 -192.07Z" fill="#005E00"/>
  <path d="M-0.139023 -192.07L-1.57693 -193.98L-3.01486 -192.07L-1.57693 -190.16L-0.139023 -192.07Z" fill="#005E00"/>
  <path d="M17.9368 -192.07L16.4989 -193.98L15.061 -192.07L16.4989 -190.16L17.9368 -192.07Z" fill="#005E00"/>
  <path d="M36.0125 -192.07L34.5746 -193.98L33.1367 -192.07L34.5746 -190.16L36.0125 -192.07Z" fill="#005E00"/>
  <path d="M54.0883 -192.07L52.6504 -193.98L51.2125 -192.07L52.6504 -190.16L54.0883 -192.07Z" fill="#005E00"/>
  <path d="M72.164 -192.07L70.7261 -193.98L69.2881 -192.07L70.7261 -190.16L72.164 -192.07Z" fill="#005E00"/>
  <path d="M90.2398 -192.07L88.8019 -193.98L87.364 -192.07L88.8019 -190.16L90.2398 -192.07Z" fill="#005E00"/>
  <path d="M-235.124 -168.06L-236.562 -169.97L-238 -168.06L-236.562 -166.15L-235.124 -168.06Z" fill="#005E00"/>
  <path d="M-217.048 -168.06L-218.486 -169.97L-219.924 -168.06L-218.486 -166.15L-217.048 -168.06Z" fill="#005E00"/>
  <path d="M-198.973 -168.06L-200.411 -169.97L-201.848 -168.06L-200.411 -166.15L-198.973 -168.06Z" fill="#005E00"/>
  <path d="M-180.897 -168.06L-182.335 -169.97L-183.773 -168.06L-182.335 -166.15L-180.897 -168.06Z" fill="#005E00"/>
  <path d="M-162.821 -168.06L-164.259 -169.97L-165.697 -168.06L-164.259 -166.15L-162.821 -168.06Z" fill="#005E00"/>
  <path d="M-144.745 -168.06L-146.183 -169.97L-147.621 -168.06L-146.183 -166.15L-144.745 -168.06Z" fill="#005E00"/>
  <path d="M-126.669 -168.06L-128.107 -169.97L-129.545 -168.06L-128.107 -166.15L-126.669 -168.06Z" fill="#005E00"/>
  <path d="M-108.594 -168.06L-110.032 -169.97L-111.47 -168.06L-110.032 -166.15L-108.594 -168.06Z" fill="#005E00"/>
  <path d="M-90.5179 -168.06L-91.9559 -169.97L-93.3938 -168.06L-91.9559 -166.15L-90.5179 -168.06Z" fill="#005E00"/>
  <path d="M-72.4421 -168.06L-73.88 -169.97L-75.3179 -168.06L-73.88 -166.15L-72.4421 -168.06Z" fill="#005E00"/>
  <path d="M-54.3664 -168.06L-55.8043 -169.97L-57.2422 -168.06L-55.8043 -166.15L-54.3664 -168.06Z" fill="#005E00"/>
  <path d="M-36.2905 -168.06L-37.7285 -169.97L-39.1664 -168.06L-37.7285 -166.15L-36.2905 -168.06Z" fill="#005E00"/>
  <path d="M-18.2147 -168.06L-19.6526 -169.97L-21.0905 -168.06L-19.6526 -166.15L-18.2147 -168.06Z" fill="#005E00"/>
  <path d="M-0.139023 -168.06L-1.57693 -169.97L-3.01486 -168.06L-1.57693 -166.15L-0.139023 -168.06Z" fill="#005E00"/>
  <path d="M17.9368 -168.06L16.4989 -169.97L15.061 -168.06L16.4989 -166.15L17.9368 -168.06Z" fill="#005E00"/>
  <path d="M36.0125 -168.06L34.5746 -169.97L33.1367 -168.06L34.5746 -166.15L36.0125 -168.06Z" fill="#005E00"/>
  <path d="M54.0883 -168.06L52.6504 -169.97L51.2125 -168.06L52.6504 -166.15L54.0883 -168.06Z" fill="#005E00"/>
  <path d="M72.164 -168.06L70.7261 -169.97L69.2881 -168.06L70.7261 -166.15L72.164 -168.06Z" fill="#005E00"/>
  <path d="M90.2398 -168.06L88.8019 -169.97L87.364 -168.06L88.8019 -166.15L90.2398 -168.06Z" fill="#005E00"/>
  <path d="M-235.124 -144.05L-236.562 -145.96L-238 -144.05L-236.562 -142.14L-235.124 -144.05Z" fill="#005E00"/>
  <path d="M-217.048 -144.05L-218.486 -145.96L-219.924 -144.05L-218.486 -142.14L-217.048 -144.05Z" fill="#005E00"/>
  <path d="M-198.973 -144.05L-200.411 -145.96L-201.848 -144.05L-200.411 -142.14L-198.973 -144.05Z" fill="#005E00"/>
  <path d="M-180.897 -144.05L-182.335 -145.96L-183.773 -144.05L-182.335 -142.14L-180.897 -144.05Z" fill="#005E00"/>
  <path d="M-162.821 -144.05L-164.259 -145.96L-165.697 -144.05L-164.259 -142.14L-162.821 -144.05Z" fill="#005E00"/>
  <path d="M-144.745 -144.05L-146.183 -145.96L-147.621 -144.05L-146.183 -142.14L-144.745 -144.05Z" fill="#005E00"/>
  <path d="M-126.669 -144.05L-128.107 -145.96L-129.545 -144.05L-128.107 -142.14L-126.669 -144.05Z" fill="#005E00"/>
  <path d="M-108.594 -144.05L-110.032 -145.96L-111.47 -144.05L-110.032 -142.14L-108.594 -144.05Z" fill="#005E00"/>
  <path d="M-90.5179 -144.05L-91.9559 -145.96L-93.3938 -144.05L-91.9559 -142.14L-90.5179 -144.05Z" fill="#005E00"/>
  <path d="M-72.4421 -144.05L-73.88 -145.96L-75.3179 -144.05L-73.88 -142.14L-72.4421 -144.05Z" fill="#005E00"/>
  <path d="M-54.3664 -144.05L-55.8043 -145.96L-57.2422 -144.05L-55.8043 -142.14L-54.3664 -144.05Z" fill="#005E00"/>
  <path d="M-36.2905 -144.05L-37.7285 -145.96L-39.1664 -144.05L-37.7285 -142.14L-36.2905 -144.05Z" fill="#005E00"/>
  <path d="M-18.2147 -144.05L-19.6526 -145.96L-21.0905 -144.05L-19.6526 -142.14L-18.2147 -144.05Z" fill="#005E00"/>
  <path d="M-0.139023 -144.05L-1.57693 -145.96L-3.01486 -144.05L-1.57693 -142.14L-0.139023 -144.05Z" fill="#005E00"/>
  <path d="M17.9368 -144.05L16.4989 -145.96L15.061 -144.05L16.4989 -142.14L17.9368 -144.05Z" fill="#005E00"/>
  <path d="M36.0125 -144.05L34.5746 -145.96L33.1367 -144.05L34.5746 -142.14L36.0125 -144.05Z" fill="#005E00"/>
  <path d="M54.0883 -144.05L52.6504 -145.96L51.2125 -144.05L52.6504 -142.14L54.0883 -144.05Z" fill="#005E00"/>
  <path d="M72.164 -144.05L70.7261 -145.96L69.2881 -144.05L70.7261 -142.14L72.164 -144.05Z" fill="#005E00"/>
  <path d="M90.2398 -144.05L88.8019 -145.96L87.364 -144.05L88.8019 -142.14L90.2398 -144.05Z" fill="#005E00"/>
  <path d="M-235.124 -120.04L-236.562 -121.95L-238 -120.04L-236.562 -118.13L-235.124 -120.04Z" fill="#005E00"/>
  <path d="M-217.048 -120.04L-218.486 -121.95L-219.924 -120.04L-218.486 -118.13L-217.048 -120.04Z" fill="#005E00"/>
  <path d="M-198.973 -120.04L-200.411 -121.95L-201.848 -120.04L-200.411 -118.13L-198.973 -120.04Z" fill="#005E00"/>
  <path d="M-180.897 -120.04L-182.335 -121.95L-183.773 -120.04L-182.335 -118.13L-180.897 -120.04Z" fill="#005E00"/>
  <path d="M-162.821 -120.04L-164.259 -121.95L-165.697 -120.04L-164.259 -118.13L-162.821 -120.04Z" fill="#005E00"/>
  <path d="M-144.745 -120.04L-146.183 -121.95L-147.621 -120.04L-146.183 -118.13L-144.745 -120.04Z" fill="#005E00"/>
  <path d="M-126.669 -120.04L-128.107 -121.95L-129.545 -120.04L-128.107 -118.13L-126.669 -120.04Z" fill="#005E00"/>
  <path d="M-108.594 -120.04L-110.032 -121.95L-111.47 -120.04L-110.032 -118.13L-108.594 -120.04Z" fill="#005E00"/>
  <path d="M-90.5179 -120.04L-91.9559 -121.95L-93.3938 -120.04L-91.9559 -118.13L-90.5179 -120.04Z" fill="#005E00"/>
  <path d="M-72.4421 -120.04L-73.88 -121.95L-75.3179 -120.04L-73.88 -118.13L-72.4421 -120.04Z" fill="#005E00"/>
  <path d="M-54.3664 -120.04L-55.8043 -121.95L-57.2422 -120.04L-55.8043 -118.13L-54.3664 -120.04Z" fill="#005E00"/>
  <path d="M-36.2905 -120.04L-37.7285 -121.95L-39.1664 -120.04L-37.7285 -118.13L-36.2905 -120.04Z" fill="#005E00"/>
  <path d="M-18.2147 -120.04L-19.6526 -121.95L-21.0905 -120.04L-19.6526 -118.13L-18.2147 -120.04Z" fill="#005E00"/>
  <path d="M-0.139023 -120.04L-1.57693 -121.95L-3.01486 -120.04L-1.57693 -118.13L-0.139023 -120.04Z" fill="#005E00"/>
  <path d="M17.9368 -120.04L16.4989 -121.95L15.061 -120.04L16.4989 -118.13L17.9368 -120.04Z" fill="#005E00"/>
  <path d="M36.0125 -120.04L34.5746 -121.95L33.1367 -120.04L34.5746 -118.13L36.0125 -120.04Z" fill="#005E00"/>
  <path d="M54.0883 -120.04L52.6504 -121.95L51.2125 -120.04L52.6504 -118.13L54.0883 -120.04Z" fill="#005E00"/>
  <path d="M72.164 -120.04L70.7261 -121.95L69.2881 -120.04L70.7261 -118.13L72.164 -120.04Z" fill="#005E00"/>
  <path d="M90.2398 -120.04L88.8019 -121.95L87.364 -120.04L88.8019 -118.13L90.2398 -120.04Z" fill="#005E00"/>
  <path d="M-235.124 -96.0298L-236.562 -97.9398L-238 -96.0298L-236.562 -94.1198L-235.124 -96.0298Z" fill="#005E00"/>
  <path d="M-217.048 -96.0298L-218.486 -97.9398L-219.924 -96.0298L-218.486 -94.1198L-217.048 -96.0298Z" fill="#005E00"/>
  <path d="M-198.973 -96.0298L-200.411 -97.9398L-201.848 -96.0298L-200.411 -94.1198L-198.973 -96.0298Z" fill="#005E00"/>
  <path d="M-180.897 -96.0298L-182.335 -97.9398L-183.773 -96.0298L-182.335 -94.1198L-180.897 -96.0298Z" fill="#005E00"/>
  <path d="M-162.821 -96.0298L-164.259 -97.9398L-165.697 -96.0298L-164.259 -94.1198L-162.821 -96.0298Z" fill="#005E00"/>
  <path d="M-144.745 -96.0298L-146.183 -97.9398L-147.621 -96.0298L-146.183 -94.1198L-144.745 -96.0298Z" fill="#005E00"/>
  <path d="M-126.669 -96.0298L-128.107 -97.9398L-129.545 -96.0298L-128.107 -94.1198L-126.669 -96.0298Z" fill="#005E00"/>
  <path d="M-108.594 -96.0298L-110.032 -97.9398L-111.47 -96.0298L-110.032 -94.1198L-108.594 -96.0298Z" fill="#005E00"/>
  <path d="M-90.5179 -96.0298L-91.9559 -97.9398L-93.3938 -96.0298L-91.9559 -94.1198L-90.5179 -96.0298Z" fill="#005E00"/>
  <path d="M-72.4421 -96.0298L-73.88 -97.9398L-75.3179 -96.0298L-73.88 -94.1198L-72.4421 -96.0298Z" fill="#005E00"/>
  <path d="M-54.3664 -96.0298L-55.8043 -97.9398L-57.2422 -96.0298L-55.8043 -94.1198L-54.3664 -96.0298Z" fill="#005E00"/>
  <path d="M-36.2905 -96.0298L-37.7285 -97.9398L-39.1664 -96.0298L-37.7285 -94.1198L-36.2905 -96.0298Z" fill="#005E00"/>
  <path d="M-18.2147 -96.0298L-19.6526 -97.9398L-21.0905 -96.0298L-19.6526 -94.1198L-18.2147 -96.0298Z" fill="#005E00"/>
  <path d="M-0.139023 -96.0298L-1.57693 -97.9398L-3.01486 -96.0298L-1.57693 -94.1198L-0.139023 -96.0298Z" fill="#005E00"/>
  <path d="M17.9368 -96.0298L16.4989 -97.9398L15.061 -96.0298L16.4989 -94.1198L17.9368 -96.0298Z" fill="#005E00"/>
  <path d="M36.0125 -96.0298L34.5746 -97.9398L33.1367 -96.0298L34.5746 -94.1198L36.0125 -96.0298Z" fill="#005E00"/>
  <path d="M54.0883 -96.0298L52.6504 -97.9398L51.2125 -96.0298L52.6504 -94.1198L54.0883 -96.0298Z" fill="#005E00"/>
  <path d="M72.164 -96.0298L70.7261 -97.9398L69.2881 -96.0298L70.7261 -94.1198L72.164 -96.0298Z" fill="#005E00"/>
  <path d="M90.2398 -96.0298L88.8019 -97.9398L87.364 -96.0298L88.8019 -94.1198L90.2398 -96.0298Z" fill="#005E00"/>
  <path d="M-235.124 -72.0203L-236.562 -73.9303L-238 -72.0203L-236.562 -70.1103L-235.124 -72.0203Z" fill="#005E00"/>
  <path d="M-217.048 -72.0203L-218.486 -73.9303L-219.924 -72.0203L-218.486 -70.1103L-217.048 -72.0203Z" fill="#005E00"/>
  <path d="M-198.973 -72.0203L-200.411 -73.9303L-201.848 -72.0203L-200.411 -70.1103L-198.973 -72.0203Z" fill="#005E00"/>
  <path d="M-180.897 -72.0203L-182.335 -73.9303L-183.773 -72.0203L-182.335 -70.1103L-180.897 -72.0203Z" fill="#005E00"/>
  <path d="M-162.821 -72.0203L-164.259 -73.9303L-165.697 -72.0203L-164.259 -70.1103L-162.821 -72.0203Z" fill="#005E00"/>
  <path d="M-144.745 -72.0203L-146.183 -73.9303L-147.621 -72.0203L-146.183 -70.1103L-144.745 -72.0203Z" fill="#005E00"/>
  <path d="M-126.669 -72.0203L-128.107 -73.9303L-129.545 -72.0203L-128.107 -70.1103L-126.669 -72.0203Z" fill="#005E00"/>
  <path d="M-108.594 -72.0203L-110.032 -73.9303L-111.47 -72.0203L-110.032 -70.1103L-108.594 -72.0203Z" fill="#005E00"/>
  <path d="M-90.5179 -72.0203L-91.9559 -73.9303L-93.3938 -72.0203L-91.9559 -70.1103L-90.5179 -72.0203Z" fill="#005E00"/>
  <path d="M-72.4421 -72.0203L-73.88 -73.9303L-75.3179 -72.0203L-73.88 -70.1103L-72.4421 -72.0203Z" fill="#005E00"/>
  <path d="M-54.3664 -72.0203L-55.8043 -73.9303L-57.2422 -72.0203L-55.8043 -70.1103L-54.3664 -72.0203Z" fill="#005E00"/>
  <path d="M-36.2905 -72.0203L-37.7285 -73.9303L-39.1664 -72.0203L-37.7285 -70.1103L-36.2905 -72.0203Z" fill="#005E00"/>
  <path d="M-18.2147 -72.0203L-19.6526 -73.9303L-21.0905 -72.0203L-19.6526 -70.1103L-18.2147 -72.0203Z" fill="#005E00"/>
  <path d="M-0.139023 -72.0203L-1.57693 -73.9303L-3.01486 -72.0203L-1.57693 -70.1103L-0.139023 -72.0203Z" fill="#005E00"/>
  <path d="M17.9368 -72.0203L16.4989 -73.9303L15.061 -72.0203L16.4989 -70.1103L17.9368 -72.0203Z" fill="#005E00"/>
  <path d="M36.0125 -72.0203L34.5746 -73.9303L33.1367 -72.0203L34.5746 -70.1103L36.0125 -72.0203Z" fill="#005E00"/>
  <path d="M54.0883 -72.0203L52.6504 -73.9303L51.2125 -72.0203L52.6504 -70.1103L54.0883 -72.0203Z" fill="#005E00"/>
  <path d="M72.164 -72.0203L70.7261 -73.9303L69.2881 -72.0203L70.7261 -70.1103L72.164 -72.0203Z" fill="#005E00"/>
  <path d="M90.2398 -72.0203L88.8019 -73.9303L87.364 -72.0203L88.8019 -70.1103L90.2398 -72.0203Z" fill="#005E00"/>
  <path d="M-235.124 -48.0099L-236.562 -49.9199L-238 -48.0099L-236.562 -46.0999L-235.124 -48.0099Z" fill="#005E00"/>
  <path d="M-217.048 -48.0099L-218.486 -49.9199L-219.924 -48.0099L-218.486 -46.0999L-217.048 -48.0099Z" fill="#005E00"/>
  <path d="M-198.973 -48.0099L-200.411 -49.9199L-201.848 -48.0099L-200.411 -46.0999L-198.973 -48.0099Z" fill="#005E00"/>
  <path d="M-180.897 -48.0099L-182.335 -49.9199L-183.773 -48.0099L-182.335 -46.0999L-180.897 -48.0099Z" fill="#005E00"/>
  <path d="M-162.821 -48.0099L-164.259 -49.9199L-165.697 -48.0099L-164.259 -46.0999L-162.821 -48.0099Z" fill="#005E00"/>
  <path d="M-144.745 -48.0099L-146.183 -49.9199L-147.621 -48.0099L-146.183 -46.0999L-144.745 -48.0099Z" fill="#005E00"/>
  <path d="M-126.669 -48.0099L-128.107 -49.9199L-129.545 -48.0099L-128.107 -46.0999L-126.669 -48.0099Z" fill="#005E00"/>
  <path d="M-108.594 -48.0099L-110.032 -49.9199L-111.47 -48.0099L-110.032 -46.0999L-108.594 -48.0099Z" fill="#005E00"/>
  <path d="M-90.5179 -48.0099L-91.9559 -49.9199L-93.3938 -48.0099L-91.9559 -46.0999L-90.5179 -48.0099Z" fill="#005E00"/>
  <path d="M-72.4421 -48.0099L-73.88 -49.9199L-75.3179 -48.0099L-73.88 -46.0999L-72.4421 -48.0099Z" fill="#005E00"/>
  <path d="M-54.3664 -48.0099L-55.8043 -49.9199L-57.2422 -48.0099L-55.8043 -46.0999L-54.3664 -48.0099Z" fill="#005E00"/>
  <path d="M-36.2905 -48.0099L-37.7285 -49.9199L-39.1664 -48.0099L-37.7285 -46.0999L-36.2905 -48.0099Z" fill="#005E00"/>
  <path d="M-18.2147 -48.0099L-19.6526 -49.9199L-21.0905 -48.0099L-19.6526 -46.0999L-18.2147 -48.0099Z" fill="#005E00"/>
  <path d="M-0.139023 -48.0099L-1.57693 -49.9199L-3.01486 -48.0099L-1.57693 -46.0999L-0.139023 -48.0099Z" fill="#005E00"/>
  <path d="M17.9368 -48.0099L16.4989 -49.9199L15.061 -48.0099L16.4989 -46.0999L17.9368 -48.0099Z" fill="#005E00"/>
  <path d="M36.0125 -48.0099L34.5746 -49.9199L33.1367 -48.0099L34.5746 -46.0999L36.0125 -48.0099Z" fill="#005E00"/>
  <path d="M54.0883 -48.0099L52.6504 -49.9199L51.2125 -48.0099L52.6504 -46.0999L54.0883 -48.0099Z" fill="#005E00"/>
  <path d="M72.164 -48.0099L70.7261 -49.9199L69.2881 -48.0099L70.7261 -46.0999L72.164 -48.0099Z" fill="#005E00"/>
  <path d="M90.2398 -48.0099L88.8019 -49.9199L87.364 -48.0099L88.8019 -46.0999L90.2398 -48.0099Z" fill="#005E00"/>
  <path d="M-235.124 -23.9998L-236.562 -25.9098L-238 -23.9998L-236.562 -22.0899L-235.124 -23.9998Z" fill="#005E00"/>
  <path d="M-217.048 -23.9998L-218.486 -25.9098L-219.924 -23.9998L-218.486 -22.0899L-217.048 -23.9998Z" fill="#005E00"/>
  <path d="M-198.973 -23.9998L-200.411 -25.9098L-201.848 -23.9998L-200.411 -22.0899L-198.973 -23.9998Z" fill="#005E00"/>
  <path d="M-180.897 -23.9998L-182.335 -25.9098L-183.773 -23.9998L-182.335 -22.0899L-180.897 -23.9998Z" fill="#005E00"/>
  <path d="M-162.821 -23.9998L-164.259 -25.9098L-165.697 -23.9998L-164.259 -22.0899L-162.821 -23.9998Z" fill="#005E00"/>
  <path d="M-144.745 -23.9998L-146.183 -25.9098L-147.621 -23.9998L-146.183 -22.0899L-144.745 -23.9998Z" fill="#005E00"/>
  <path d="M-126.669 -23.9998L-128.107 -25.9098L-129.545 -23.9998L-128.107 -22.0899L-126.669 -23.9998Z" fill="#005E00"/>
  <path d="M-108.594 -23.9998L-110.032 -25.9098L-111.47 -23.9998L-110.032 -22.0899L-108.594 -23.9998Z" fill="#005E00"/>
  <path d="M-90.5179 -23.9998L-91.9559 -25.9098L-93.3938 -23.9998L-91.9559 -22.0899L-90.5179 -23.9998Z" fill="#005E00"/>
  <path d="M-72.4421 -23.9998L-73.88 -25.9098L-75.3179 -23.9998L-73.88 -22.0899L-72.4421 -23.9998Z" fill="#005E00"/>
  <path d="M-54.3664 -23.9998L-55.8043 -25.9098L-57.2422 -23.9998L-55.8043 -22.0899L-54.3664 -23.9998Z" fill="#005E00"/>
  <path d="M-36.2905 -23.9998L-37.7285 -25.9098L-39.1664 -23.9998L-37.7285 -22.0899L-36.2905 -23.9998Z" fill="#005E00"/>
  <path d="M-18.2147 -23.9998L-19.6526 -25.9098L-21.0905 -23.9998L-19.6526 -22.0899L-18.2147 -23.9998Z" fill="#005E00"/>
  <path d="M-0.139023 -23.9998L-1.57693 -25.9098L-3.01486 -23.9998L-1.57693 -22.0899L-0.139023 -23.9998Z" fill="#005E00"/>
  <path d="M17.9368 -23.9998L16.4989 -25.9098L15.061 -23.9998L16.4989 -22.0899L17.9368 -23.9998Z" fill="#005E00"/>
  <path d="M36.0125 -23.9998L34.5746 -25.9098L33.1367 -23.9998L34.5746 -22.0899L36.0125 -23.9998Z" fill="#005E00"/>
  <path d="M54.0883 -23.9998L52.6504 -25.9098L51.2125 -23.9998L52.6504 -22.0899L54.0883 -23.9998Z" fill="#005E00"/>
  <path d="M72.164 -23.9998L70.7261 -25.9098L69.2881 -23.9998L70.7261 -22.0899L72.164 -23.9998Z" fill="#005E00"/>
  <path d="M90.2398 -23.9998L88.8019 -25.9098L87.364 -23.9998L88.8019 -22.0899L90.2398 -23.9998Z" fill="#005E00"/>
  <path d="M-235.124 0.00993347L-236.562 -1.90004L-238 0.00993347L-236.562 1.91992L-235.124 0.00993347Z" fill="#005E00"/>
  <path d="M-217.048 0.00993347L-218.486 -1.90004L-219.924 0.00993347L-218.486 1.91992L-217.048 0.00993347Z" fill="#005E00"/>
  <path d="M-198.973 0.00993347L-200.411 -1.90004L-201.848 0.00993347L-200.411 1.91992L-198.973 0.00993347Z" fill="#005E00"/>
  <path d="M-180.897 0.00993347L-182.335 -1.90004L-183.773 0.00993347L-182.335 1.91992L-180.897 0.00993347Z" fill="#005E00"/>
  <path d="M-162.821 0.00993347L-164.259 -1.90004L-165.697 0.00993347L-164.259 1.91992L-162.821 0.00993347Z" fill="#005E00"/>
  <path d="M-144.745 0.00993347L-146.183 -1.90004L-147.621 0.00993347L-146.183 1.91992L-144.745 0.00993347Z" fill="#005E00"/>
  <path d="M-126.669 0.00993347L-128.107 -1.90004L-129.545 0.00993347L-128.107 1.91992L-126.669 0.00993347Z" fill="#005E00"/>
  <path d="M-108.594 0.00993347L-110.032 -1.90004L-111.47 0.00993347L-110.032 1.91992L-108.594 0.00993347Z" fill="#005E00"/>
  <path d="M-90.5179 0.00993347L-91.9559 -1.90004L-93.3938 0.00993347L-91.9559 1.91992L-90.5179 0.00993347Z" fill="#005E00"/>
  <path d="M-72.4421 0.00993347L-73.88 -1.90004L-75.3179 0.00993347L-73.88 1.91992L-72.4421 0.00993347Z" fill="#005E00"/>
  <path d="M-54.3664 0.00993347L-55.8043 -1.90004L-57.2422 0.00993347L-55.8043 1.91992L-54.3664 0.00993347Z" fill="#005E00"/>
  <path d="M-36.2905 0.00993347L-37.7285 -1.90004L-39.1664 0.00993347L-37.7285 1.91992L-36.2905 0.00993347Z" fill="#005E00"/>
  <path d="M-18.2147 0.00993347L-19.6526 -1.90004L-21.0905 0.00993347L-19.6526 1.91992L-18.2147 0.00993347Z" fill="#005E00"/>
  <path d="M-0.139023 0.00993347L-1.57693 -1.90004L-3.01486 0.00993347L-1.57693 1.91992L-0.139023 0.00993347Z" fill="#005E00"/>
  <path d="M17.9368 0.00993347L16.4989 -1.90004L15.061 0.00993347L16.4989 1.91992L17.9368 0.00993347Z" fill="#005E00"/>
  <path d="M36.0125 0.00993347L34.5746 -1.90004L33.1367 0.00993347L34.5746 1.91992L36.0125 0.00993347Z" fill="#005E00"/>
  <path d="M54.0883 0.00993347L52.6504 -1.90004L51.2125 0.00993347L52.6504 1.91992L54.0883 0.00993347Z" fill="#005E00"/>
  <path d="M72.164 0.00993347L70.7261 -1.90004L69.2881 0.00993347L70.7261 1.91992L72.164 0.00993347Z" fill="#005E00"/>
  <path d="M90.2398 0.00993347L88.8019 -1.90004L87.364 0.00993347L88.8019 1.91992L90.2398 0.00993347Z" fill="#005E00"/>
  <path d="M-235.124 24.0197L-236.562 22.1097L-238 24.0197L-236.562 25.9297L-235.124 24.0197Z" fill="#005E00"/>
  <path d="M-217.048 24.0197L-218.486 22.1097L-219.924 24.0197L-218.486 25.9297L-217.048 24.0197Z" fill="#005E00"/>
  <path d="M-198.973 24.0197L-200.411 22.1097L-201.848 24.0197L-200.411 25.9297L-198.973 24.0197Z" fill="#005E00"/>
  <path d="M-180.897 24.0197L-182.335 22.1097L-183.773 24.0197L-182.335 25.9297L-180.897 24.0197Z" fill="#005E00"/>
  <path d="M-162.821 24.0197L-164.259 22.1097L-165.697 24.0197L-164.259 25.9297L-162.821 24.0197Z" fill="#005E00"/>
  <path d="M-144.745 24.0197L-146.183 22.1097L-147.621 24.0197L-146.183 25.9297L-144.745 24.0197Z" fill="#005E00"/>
  <path d="M-126.669 24.0197L-128.107 22.1097L-129.545 24.0197L-128.107 25.9297L-126.669 24.0197Z" fill="#005E00"/>
  <path d="M-108.594 24.0197L-110.032 22.1097L-111.47 24.0197L-110.032 25.9297L-108.594 24.0197Z" fill="#005E00"/>
  <path d="M-90.5179 24.0197L-91.9559 22.1097L-93.3938 24.0197L-91.9559 25.9297L-90.5179 24.0197Z" fill="#005E00"/>
  <path d="M-72.4421 24.0197L-73.88 22.1097L-75.3179 24.0197L-73.88 25.9297L-72.4421 24.0197Z" fill="#005E00"/>
  <path d="M-54.3664 24.0197L-55.8043 22.1097L-57.2422 24.0197L-55.8043 25.9297L-54.3664 24.0197Z" fill="#005E00"/>
  <path d="M-36.2905 24.0197L-37.7285 22.1097L-39.1664 24.0197L-37.7285 25.9297L-36.2905 24.0197Z" fill="#005E00"/>
  <path d="M-18.2147 24.0197L-19.6526 22.1097L-21.0905 24.0197L-19.6526 25.9297L-18.2147 24.0197Z" fill="#005E00"/>
  <path d="M-0.139023 24.0197L-1.57693 22.1097L-3.01486 24.0197L-1.57693 25.9297L-0.139023 24.0197Z" fill="#005E00"/>
  <path d="M17.9368 24.0197L16.4989 22.1097L15.061 24.0197L16.4989 25.9297L17.9368 24.0197Z" fill="#005E00"/>
  <path d="M36.0125 24.0197L34.5746 22.1097L33.1367 24.0197L34.5746 25.9297L36.0125 24.0197Z" fill="#005E00"/>
  <path d="M54.0883 24.0197L52.6504 22.1097L51.2125 24.0197L52.6504 25.9297L54.0883 24.0197Z" fill="#005E00"/>
  <path d="M72.164 24.0197L70.7261 22.1097L69.2881 24.0197L70.7261 25.9297L72.164 24.0197Z" fill="#005E00"/>
  <path d="M90.2398 24.0197L88.8019 22.1097L87.364 24.0197L88.8019 25.9297L90.2398 24.0197Z" fill="#005E00"/>
  <path d="M-235.124 48.0301L-236.562 46.1201L-238 48.0301L-236.562 49.9401L-235.124 48.0301Z" fill="#005E00"/>
  <path d="M-217.048 48.0301L-218.486 46.1201L-219.924 48.0301L-218.486 49.9401L-217.048 48.0301Z" fill="#005E00"/>
  <path d="M-198.973 48.0301L-200.411 46.1201L-201.848 48.0301L-200.411 49.9401L-198.973 48.0301Z" fill="#005E00"/>
  <path d="M-180.897 48.0301L-182.335 46.1201L-183.773 48.0301L-182.335 49.9401L-180.897 48.0301Z" fill="#005E00"/>
  <path d="M-162.821 48.0301L-164.259 46.1201L-165.697 48.0301L-164.259 49.9401L-162.821 48.0301Z" fill="#005E00"/>
  <path d="M-144.745 48.0301L-146.183 46.1201L-147.621 48.0301L-146.183 49.9401L-144.745 48.0301Z" fill="#005E00"/>
  <path d="M-126.669 48.0301L-128.107 46.1201L-129.545 48.0301L-128.107 49.9401L-126.669 48.0301Z" fill="#005E00"/>
  <path d="M-108.594 48.0301L-110.032 46.1201L-111.47 48.0301L-110.032 49.9401L-108.594 48.0301Z" fill="#005E00"/>
  <path d="M-90.5179 48.0301L-91.9559 46.1201L-93.3938 48.0301L-91.9559 49.9401L-90.5179 48.0301Z" fill="#005E00"/>
  <path d="M-72.4421 48.0301L-73.88 46.1201L-75.3179 48.0301L-73.88 49.9401L-72.4421 48.0301Z" fill="#005E00"/>
  <path d="M-54.3664 48.0301L-55.8043 46.1201L-57.2422 48.0301L-55.8043 49.9401L-54.3664 48.0301Z" fill="#005E00"/>
  <path d="M-36.2905 48.0301L-37.7285 46.1201L-39.1664 48.0301L-37.7285 49.9401L-36.2905 48.0301Z" fill="#005E00"/>
  <path d="M-18.2147 48.0301L-19.6526 46.1201L-21.0905 48.0301L-19.6526 49.9401L-18.2147 48.0301Z" fill="#005E00"/>
  <path d="M-0.139023 48.0301L-1.57693 46.1201L-3.01486 48.0301L-1.57693 49.9401L-0.139023 48.0301Z" fill="#005E00"/>
  <path d="M17.9368 48.0301L16.4989 46.1201L15.061 48.0301L16.4989 49.9401L17.9368 48.0301Z" fill="#005E00"/>
  <path d="M36.0125 48.0301L34.5746 46.1201L33.1367 48.0301L34.5746 49.9401L36.0125 48.0301Z" fill="#005E00"/>
  <path d="M54.0883 48.0301L52.6504 46.1201L51.2125 48.0301L52.6504 49.9401L54.0883 48.0301Z" fill="#005E00"/>
  <path d="M72.164 48.0301L70.7261 46.1201L69.2881 48.0301L70.7261 49.9401L72.164 48.0301Z" fill="#005E00"/>
  <path d="M90.2398 48.0301L88.8019 46.1201L87.364 48.0301L88.8019 49.9401L90.2398 48.0301Z" fill="#005E00"/>
  <path d="M-235.124 72.0399L-236.562 70.1299L-238 72.0399L-236.562 73.9499L-235.124 72.0399Z" fill="#005E00"/>
  <path d="M-217.048 72.0399L-218.486 70.1299L-219.924 72.0399L-218.486 73.9499L-217.048 72.0399Z" fill="#005E00"/>
  <path d="M-198.973 72.0399L-200.411 70.1299L-201.848 72.0399L-200.411 73.9499L-198.973 72.0399Z" fill="#005E00"/>
  <path d="M-180.897 72.0399L-182.335 70.1299L-183.773 72.0399L-182.335 73.9499L-180.897 72.0399Z" fill="#005E00"/>
  <path d="M-162.821 72.0399L-164.259 70.1299L-165.697 72.0399L-164.259 73.9499L-162.821 72.0399Z" fill="#005E00"/>
  <path d="M-144.745 72.0399L-146.183 70.1299L-147.621 72.0399L-146.183 73.9499L-144.745 72.0399Z" fill="#005E00"/>
  <path d="M-126.669 72.0399L-128.107 70.1299L-129.545 72.0399L-128.107 73.9499L-126.669 72.0399Z" fill="#005E00"/>
  <path d="M-108.594 72.0399L-110.032 70.1299L-111.47 72.0399L-110.032 73.9499L-108.594 72.0399Z" fill="#005E00"/>
  <path d="M-90.5179 72.0399L-91.9559 70.1299L-93.3938 72.0399L-91.9559 73.9499L-90.5179 72.0399Z" fill="#005E00"/>
  <path d="M-72.4421 72.0399L-73.88 70.1299L-75.3179 72.0399L-73.88 73.9499L-72.4421 72.0399Z" fill="#005E00"/>
  <path d="M-54.3664 72.0399L-55.8043 70.1299L-57.2422 72.0399L-55.8043 73.9499L-54.3664 72.0399Z" fill="#005E00"/>
  <path d="M-36.2905 72.0399L-37.7285 70.1299L-39.1664 72.0399L-37.7285 73.9499L-36.2905 72.0399Z" fill="#005E00"/>
  <path d="M-18.2147 72.0399L-19.6526 70.1299L-21.0905 72.0399L-19.6526 73.9499L-18.2147 72.0399Z" fill="#005E00"/>
  <path d="M-0.139023 72.0399L-1.57693 70.1299L-3.01486 72.0399L-1.57693 73.9499L-0.139023 72.0399Z" fill="#005E00"/>
  <path d="M17.9368 72.0399L16.4989 70.1299L15.061 72.0399L16.4989 73.9499L17.9368 72.0399Z" fill="#005E00"/>
  <path d="M36.0125 72.0399L34.5746 70.1299L33.1367 72.0399L34.5746 73.9499L36.0125 72.0399Z" fill="#005E00"/>
  <path d="M54.0883 72.0399L52.6504 70.1299L51.2125 72.0399L52.6504 73.9499L54.0883 72.0399Z" fill="#005E00"/>
  <path d="M72.164 72.0399L70.7261 70.1299L69.2881 72.0399L70.7261 73.9499L72.164 72.0399Z" fill="#005E00"/>
  <path d="M90.2398 72.0399L88.8019 70.1299L87.364 72.0399L88.8019 73.9499L90.2398 72.0399Z" fill="#005E00"/>
  <path d="M-235.124 96.0497L-236.562 94.1397L-238 96.0497L-236.562 97.9597L-235.124 96.0497Z" fill="#005E00"/>
  <path d="M-217.048 96.0497L-218.486 94.1397L-219.924 96.0497L-218.486 97.9597L-217.048 96.0497Z" fill="#005E00"/>
  <path d="M-198.973 96.0497L-200.411 94.1397L-201.848 96.0497L-200.411 97.9597L-198.973 96.0497Z" fill="#005E00"/>
  <path d="M-180.897 96.0497L-182.335 94.1397L-183.773 96.0497L-182.335 97.9597L-180.897 96.0497Z" fill="#005E00"/>
  <path d="M-162.821 96.0497L-164.259 94.1397L-165.697 96.0497L-164.259 97.9597L-162.821 96.0497Z" fill="#005E00"/>
  <path d="M-144.745 96.0497L-146.183 94.1397L-147.621 96.0497L-146.183 97.9597L-144.745 96.0497Z" fill="#005E00"/>
  <path d="M-126.669 96.0497L-128.107 94.1397L-129.545 96.0497L-128.107 97.9597L-126.669 96.0497Z" fill="#005E00"/>
  <path d="M-108.594 96.0497L-110.032 94.1397L-111.47 96.0497L-110.032 97.9597L-108.594 96.0497Z" fill="#005E00"/>
  <path d="M-90.5179 96.0497L-91.9559 94.1397L-93.3938 96.0497L-91.9559 97.9597L-90.5179 96.0497Z" fill="#005E00"/>
  <path d="M-72.4421 96.0497L-73.88 94.1397L-75.3179 96.0497L-73.88 97.9597L-72.4421 96.0497Z" fill="#005E00"/>
  <path d="M-54.3664 96.0497L-55.8043 94.1397L-57.2422 96.0497L-55.8043 97.9597L-54.3664 96.0497Z" fill="#005E00"/>
  <path d="M-36.2905 96.0497L-37.7285 94.1397L-39.1664 96.0497L-37.7285 97.9597L-36.2905 96.0497Z" fill="#005E00"/>
  <path d="M-18.2147 96.0497L-19.6526 94.1397L-21.0905 96.0497L-19.6526 97.9597L-18.2147 96.0497Z" fill="#005E00"/>
  <path d="M-0.139023 96.0497L-1.57693 94.1397L-3.01486 96.0497L-1.57693 97.9597L-0.139023 96.0497Z" fill="#005E00"/>
  <path d="M17.9368 96.0497L16.4989 94.1397L15.061 96.0497L16.4989 97.9597L17.9368 96.0497Z" fill="#005E00"/>
  <path d="M36.0125 96.0497L34.5746 94.1397L33.1367 96.0497L34.5746 97.9597L36.0125 96.0497Z" fill="#005E00"/>
  <path d="M54.0883 96.0497L52.6504 94.1397L51.2125 96.0497L52.6504 97.9597L54.0883 96.0497Z" fill="#005E00"/>
  <path d="M72.164 96.0497L70.7261 94.1397L69.2881 96.0497L70.7261 97.9597L72.164 96.0497Z" fill="#005E00"/>
  <path d="M90.2398 96.0497L88.8019 94.1397L87.364 96.0497L88.8019 97.9597L90.2398 96.0497Z" fill="#005E00"/>
  <path d="M-235.124 120.06L-236.562 118.15L-238 120.06L-236.562 121.97L-235.124 120.06Z" fill="#005E00"/>
  <path d="M-217.048 120.06L-218.486 118.15L-219.924 120.06L-218.486 121.97L-217.048 120.06Z" fill="#005E00"/>
  <path d="M-198.973 120.06L-200.411 118.15L-201.848 120.06L-200.411 121.97L-198.973 120.06Z" fill="#005E00"/>
  <path d="M-180.897 120.06L-182.335 118.15L-183.773 120.06L-182.335 121.97L-180.897 120.06Z" fill="#005E00"/>
  <path d="M-162.821 120.06L-164.259 118.15L-165.697 120.06L-164.259 121.97L-162.821 120.06Z" fill="#005E00"/>
  <path d="M-144.745 120.06L-146.183 118.15L-147.621 120.06L-146.183 121.97L-144.745 120.06Z" fill="#005E00"/>
  <path d="M-126.669 120.06L-128.107 118.15L-129.545 120.06L-128.107 121.97L-126.669 120.06Z" fill="#005E00"/>
  <path d="M-108.594 120.06L-110.032 118.15L-111.47 120.06L-110.032 121.97L-108.594 120.06Z" fill="#005E00"/>
  <path d="M-90.5179 120.06L-91.9559 118.15L-93.3938 120.06L-91.9559 121.97L-90.5179 120.06Z" fill="#005E00"/>
  <path d="M-72.4421 120.06L-73.88 118.15L-75.3179 120.06L-73.88 121.97L-72.4421 120.06Z" fill="#005E00"/>
  <path d="M-54.3664 120.06L-55.8043 118.15L-57.2422 120.06L-55.8043 121.97L-54.3664 120.06Z" fill="#005E00"/>
  <path d="M-36.2905 120.06L-37.7285 118.15L-39.1664 120.06L-37.7285 121.97L-36.2905 120.06Z" fill="#005E00"/>
  <path d="M-18.2147 120.06L-19.6526 118.15L-21.0905 120.06L-19.6526 121.97L-18.2147 120.06Z" fill="#005E00"/>
  <path d="M-0.139023 120.06L-1.57693 118.15L-3.01486 120.06L-1.57693 121.97L-0.139023 120.06Z" fill="#005E00"/>
  <path d="M17.9368 120.06L16.4989 118.15L15.061 120.06L16.4989 121.97L17.9368 120.06Z" fill="#005E00"/>
  <path d="M36.0125 120.06L34.5746 118.15L33.1367 120.06L34.5746 121.97L36.0125 120.06Z" fill="#005E00"/>
  <path d="M54.0883 120.06L52.6504 118.15L51.2125 120.06L52.6504 121.97L54.0883 120.06Z" fill="#005E00"/>
  <path d="M72.164 120.06L70.7261 118.15L69.2881 120.06L70.7261 121.97L72.164 120.06Z" fill="#005E00"/>
  <path d="M90.2398 120.06L88.8019 118.15L87.364 120.06L88.8019 121.97L90.2398 120.06Z" fill="#005E00"/>
  <path d="M-235.124 144.07L-236.562 142.16L-238 144.07L-236.562 145.98L-235.124 144.07Z" fill="#005E00"/>
  <path d="M-217.048 144.07L-218.486 142.16L-219.924 144.07L-218.486 145.98L-217.048 144.07Z" fill="#005E00"/>
  <path d="M-198.973 144.07L-200.411 142.16L-201.848 144.07L-200.411 145.98L-198.973 144.07Z" fill="#005E00"/>
  <path d="M-180.897 144.07L-182.335 142.16L-183.773 144.07L-182.335 145.98L-180.897 144.07Z" fill="#005E00"/>
  <path d="M-162.821 144.07L-164.259 142.16L-165.697 144.07L-164.259 145.98L-162.821 144.07Z" fill="#005E00"/>
  <path d="M-144.745 144.07L-146.183 142.16L-147.621 144.07L-146.183 145.98L-144.745 144.07Z" fill="#005E00"/>
  <path d="M-126.669 144.07L-128.107 142.16L-129.545 144.07L-128.107 145.98L-126.669 144.07Z" fill="#005E00"/>
  <path d="M-108.594 144.07L-110.032 142.16L-111.47 144.07L-110.032 145.98L-108.594 144.07Z" fill="#005E00"/>
  <path d="M-90.5179 144.07L-91.9559 142.16L-93.3938 144.07L-91.9559 145.98L-90.5179 144.07Z" fill="#005E00"/>
  <path d="M-72.4421 144.07L-73.88 142.16L-75.3179 144.07L-73.88 145.98L-72.4421 144.07Z" fill="#005E00"/>
  <path d="M-54.3664 144.07L-55.8043 142.16L-57.2422 144.07L-55.8043 145.98L-54.3664 144.07Z" fill="#005E00"/>
  <path d="M-36.2905 144.07L-37.7285 142.16L-39.1664 144.07L-37.7285 145.98L-36.2905 144.07Z" fill="#005E00"/>
  <path d="M-18.2147 144.07L-19.6526 142.16L-21.0905 144.07L-19.6526 145.98L-18.2147 144.07Z" fill="#005E00"/>
  <path d="M-0.139023 144.07L-1.57693 142.16L-3.01486 144.07L-1.57693 145.98L-0.139023 144.07Z" fill="#005E00"/>
  <path d="M17.9368 144.07L16.4989 142.16L15.061 144.07L16.4989 145.98L17.9368 144.07Z" fill="#005E00"/>
  <path d="M36.0125 144.07L34.5746 142.16L33.1367 144.07L34.5746 145.98L36.0125 144.07Z" fill="#005E00"/>
  <path d="M54.0883 144.07L52.6504 142.16L51.2125 144.07L52.6504 145.98L54.0883 144.07Z" fill="#005E00"/>
  <path d="M72.164 144.07L70.7261 142.16L69.2881 144.07L70.7261 145.98L72.164 144.07Z" fill="#005E00"/>
  <path d="M90.2398 144.07L88.8019 142.16L87.364 144.07L88.8019 145.98L90.2398 144.07Z" fill="#005E00"/>
  <path d="M-235.124 168.08L-236.562 166.17L-238 168.08L-236.562 169.99L-235.124 168.08Z" fill="#005E00"/>
  <path d="M-217.048 168.08L-218.486 166.17L-219.924 168.08L-218.486 169.99L-217.048 168.08Z" fill="#005E00"/>
  <path d="M-198.973 168.08L-200.411 166.17L-201.848 168.08L-200.411 169.99L-198.973 168.08Z" fill="#005E00"/>
  <path d="M-180.897 168.08L-182.335 166.17L-183.773 168.08L-182.335 169.99L-180.897 168.08Z" fill="#005E00"/>
  <path d="M-162.821 168.08L-164.259 166.17L-165.697 168.08L-164.259 169.99L-162.821 168.08Z" fill="#005E00"/>
  <path d="M-144.745 168.08L-146.183 166.17L-147.621 168.08L-146.183 169.99L-144.745 168.08Z" fill="#005E00"/>
  <path d="M-126.669 168.08L-128.107 166.17L-129.545 168.08L-128.107 169.99L-126.669 168.08Z" fill="#005E00"/>
  <path d="M-108.594 168.08L-110.032 166.17L-111.47 168.08L-110.032 169.99L-108.594 168.08Z" fill="#005E00"/>
  <path d="M-90.5179 168.08L-91.9559 166.17L-93.3938 168.08L-91.9559 169.99L-90.5179 168.08Z" fill="#005E00"/>
  <path d="M-72.4421 168.08L-73.88 166.17L-75.3179 168.08L-73.88 169.99L-72.4421 168.08Z" fill="#005E00"/>
  <path d="M-54.3664 168.08L-55.8043 166.17L-57.2422 168.08L-55.8043 169.99L-54.3664 168.08Z" fill="#005E00"/>
  <path d="M-36.2905 168.08L-37.7285 166.17L-39.1664 168.08L-37.7285 169.99L-36.2905 168.08Z" fill="#005E00"/>
  <path d="M-18.2147 168.08L-19.6526 166.17L-21.0905 168.08L-19.6526 169.99L-18.2147 168.08Z" fill="#005E00"/>
  <path d="M-0.139023 168.08L-1.57693 166.17L-3.01486 168.08L-1.57693 169.99L-0.139023 168.08Z" fill="#005E00"/>
  <path d="M17.9368 168.08L16.4989 166.17L15.061 168.08L16.4989 169.99L17.9368 168.08Z" fill="#005E00"/>
  <path d="M36.0125 168.08L34.5746 166.17L33.1367 168.08L34.5746 169.99L36.0125 168.08Z" fill="#005E00"/>
  <path d="M54.0883 168.08L52.6504 166.17L51.2125 168.08L52.6504 169.99L54.0883 168.08Z" fill="#005E00"/>
  <path d="M72.164 168.08L70.7261 166.17L69.2881 168.08L70.7261 169.99L72.164 168.08Z" fill="#005E00"/>
  <path d="M90.2398 168.08L88.8019 166.17L87.364 168.08L88.8019 169.99L90.2398 168.08Z" fill="#005E00"/>
  <path d="M-235.124 192.09L-236.562 190.18L-238 192.09L-236.562 194L-235.124 192.09Z" fill="#005E00"/>
  <path d="M-217.048 192.09L-218.486 190.18L-219.924 192.09L-218.486 194L-217.048 192.09Z" fill="#005E00"/>
  <path d="M-198.973 192.09L-200.411 190.18L-201.848 192.09L-200.411 194L-198.973 192.09Z" fill="#005E00"/>
  <path d="M-180.897 192.09L-182.335 190.18L-183.773 192.09L-182.335 194L-180.897 192.09Z" fill="#005E00"/>
  <path d="M-162.821 192.09L-164.259 190.18L-165.697 192.09L-164.259 194L-162.821 192.09Z" fill="#005E00"/>
  <path d="M-144.745 192.09L-146.183 190.18L-147.621 192.09L-146.183 194L-144.745 192.09Z" fill="#005E00"/>
  <path d="M-126.669 192.09L-128.107 190.18L-129.545 192.09L-128.107 194L-126.669 192.09Z" fill="#005E00"/>
  <path d="M-108.594 192.09L-110.032 190.18L-111.47 192.09L-110.032 194L-108.594 192.09Z" fill="#005E00"/>
  <path d="M-90.5179 192.09L-91.9559 190.18L-93.3938 192.09L-91.9559 194L-90.5179 192.09Z" fill="#005E00"/>
  <path d="M-72.4421 192.09L-73.88 190.18L-75.3179 192.09L-73.88 194L-72.4421 192.09Z" fill="#005E00"/>
  <path d="M-54.3664 192.09L-55.8043 190.18L-57.2422 192.09L-55.8043 194L-54.3664 192.09Z" fill="#005E00"/>
  <path d="M-36.2905 192.09L-37.7285 190.18L-39.1664 192.09L-37.7285 194L-36.2905 192.09Z" fill="#005E00"/>
  <path d="M-18.2147 192.09L-19.6526 190.18L-21.0905 192.09L-19.6526 194L-18.2147 192.09Z" fill="#005E00"/>
  <path d="M-0.139023 192.09L-1.57693 190.18L-3.01486 192.09L-1.57693 194L-0.139023 192.09Z" fill="#005E00"/>
  <path d="M17.9368 192.09L16.4989 190.18L15.061 192.09L16.4989 194L17.9368 192.09Z" fill="#005E00"/>
  <path d="M36.0125 192.09L34.5746 190.18L33.1367 192.09L34.5746 194L36.0125 192.09Z" fill="#005E00"/>
  <path d="M54.0883 192.09L52.6504 190.18L51.2125 192.09L52.6504 194L54.0883 192.09Z" fill="#005E00"/>
  <path d="M72.164 192.09L70.7261 190.18L69.2881 192.09L70.7261 194L72.164 192.09Z" fill="#005E00"/>
  <path d="M90.2398 192.09L88.8019 190.18L87.364 192.09L88.8019 194L90.2398 192.09Z" fill="#005E00"/>
  <path d="M-54.364 -240.09L-55.8019 -242L-57.2398 -240.09L-55.8019 -238.18L-54.364 -240.09Z" fill="#005E00"/>
  <path d="M-36.2881 -240.09L-37.726 -242L-39.164 -240.09L-37.726 -238.18L-36.2881 -240.09Z" fill="#005E00"/>
  <path d="M-18.2124 -240.09L-19.6504 -242L-21.0883 -240.09L-19.6504 -238.18L-18.2124 -240.09Z" fill="#005E00"/>
  <path d="M-0.136597 -240.09L-1.57452 -242L-3.01244 -240.09L-1.57452 -238.18L-0.136597 -240.09Z" fill="#005E00"/>
  <path d="M17.9393 -240.09L16.5013 -242L15.0634 -240.09L16.5013 -238.18L17.9393 -240.09Z" fill="#005E00"/>
  <path d="M36.0149 -240.09L34.577 -242L33.1391 -240.09L34.577 -238.18L36.0149 -240.09Z" fill="#005E00"/>
  <path d="M54.0907 -240.09L52.6528 -242L51.2149 -240.09L52.6528 -238.18L54.0907 -240.09Z" fill="#005E00"/>
  <path d="M72.1664 -240.09L70.7285 -242L69.2906 -240.09L70.7285 -238.18L72.1664 -240.09Z" fill="#005E00"/>
  <path d="M90.2422 -240.09L88.8043 -242L87.3664 -240.09L88.8043 -238.18L90.2422 -240.09Z" fill="#005E00"/>
  <path d="M108.318 -240.09L106.88 -242L105.442 -240.09L106.88 -238.18L108.318 -240.09Z" fill="#005E00"/>
  <path d="M126.394 -240.09L124.956 -242L123.518 -240.09L124.956 -238.18L126.394 -240.09Z" fill="#005E00"/>
  <path d="M144.47 -240.09L143.032 -242L141.594 -240.09L143.032 -238.18L144.47 -240.09Z" fill="#005E00"/>
  <path d="M162.545 -240.09L161.108 -242L159.67 -240.09L161.108 -238.18L162.545 -240.09Z" fill="#005E00"/>
  <path d="M180.621 -240.09L179.183 -242L177.745 -240.09L179.183 -238.18L180.621 -240.09Z" fill="#005E00"/>
  <path d="M198.697 -240.09L197.259 -242L195.821 -240.09L197.259 -238.18L198.697 -240.09Z" fill="#005E00"/>
  <path d="M216.773 -240.09L215.335 -242L213.897 -240.09L215.335 -238.18L216.773 -240.09Z" fill="#005E00"/>
  <path d="M234.848 -240.09L233.411 -242L231.973 -240.09L233.411 -238.18L234.848 -240.09Z" fill="#005E00"/>
  <path d="M252.924 -240.09L251.486 -242L250.048 -240.09L251.486 -238.18L252.924 -240.09Z" fill="#005E00"/>
  <path d="M271 -240.09L269.562 -242L268.124 -240.09L269.562 -238.18L271 -240.09Z" fill="#005E00"/>
  <path d="M-54.364 -216.08L-55.8019 -217.99L-57.2398 -216.08L-55.8019 -214.17L-54.364 -216.08Z" fill="#005E00"/>
  <path d="M-36.2881 -216.08L-37.726 -217.99L-39.164 -216.08L-37.726 -214.17L-36.2881 -216.08Z" fill="#005E00"/>
  <path d="M-18.2124 -216.08L-19.6504 -217.99L-21.0883 -216.08L-19.6504 -214.17L-18.2124 -216.08Z" fill="#005E00"/>
  <path d="M-0.136597 -216.08L-1.57452 -217.99L-3.01244 -216.08L-1.57452 -214.17L-0.136597 -216.08Z" fill="#005E00"/>
  <path d="M17.9393 -216.08L16.5013 -217.99L15.0634 -216.08L16.5013 -214.17L17.9393 -216.08Z" fill="#005E00"/>
  <path d="M36.0149 -216.08L34.577 -217.99L33.1391 -216.08L34.577 -214.17L36.0149 -216.08Z" fill="#005E00"/>
  <path d="M54.0907 -216.08L52.6528 -217.99L51.2149 -216.08L52.6528 -214.17L54.0907 -216.08Z" fill="#005E00"/>
  <path d="M72.1664 -216.08L70.7285 -217.99L69.2906 -216.08L70.7285 -214.17L72.1664 -216.08Z" fill="#005E00"/>
  <path d="M90.2422 -216.08L88.8043 -217.99L87.3664 -216.08L88.8043 -214.17L90.2422 -216.08Z" fill="#005E00"/>
  <path d="M108.318 -216.08L106.88 -217.99L105.442 -216.08L106.88 -214.17L108.318 -216.08Z" fill="#005E00"/>
  <path d="M126.394 -216.08L124.956 -217.99L123.518 -216.08L124.956 -214.17L126.394 -216.08Z" fill="#005E00"/>
  <path d="M144.47 -216.08L143.032 -217.99L141.594 -216.08L143.032 -214.17L144.47 -216.08Z" fill="#005E00"/>
  <path d="M162.545 -216.08L161.108 -217.99L159.67 -216.08L161.108 -214.17L162.545 -216.08Z" fill="#005E00"/>
  <path d="M180.621 -216.08L179.183 -217.99L177.745 -216.08L179.183 -214.17L180.621 -216.08Z" fill="#005E00"/>
  <path d="M198.697 -216.08L197.259 -217.99L195.821 -216.08L197.259 -214.17L198.697 -216.08Z" fill="#005E00"/>
  <path d="M216.773 -216.08L215.335 -217.99L213.897 -216.08L215.335 -214.17L216.773 -216.08Z" fill="#005E00"/>
  <path d="M234.848 -216.08L233.411 -217.99L231.973 -216.08L233.411 -214.17L234.848 -216.08Z" fill="#005E00"/>
  <path d="M252.924 -216.08L251.486 -217.99L250.048 -216.08L251.486 -214.17L252.924 -216.08Z" fill="#005E00"/>
  <path d="M271 -216.08L269.562 -217.99L268.124 -216.08L269.562 -214.17L271 -216.08Z" fill="#005E00"/>
  <path d="M-54.364 -192.07L-55.8019 -193.98L-57.2398 -192.07L-55.8019 -190.16L-54.364 -192.07Z" fill="#005E00"/>
  <path d="M-36.2881 -192.07L-37.726 -193.98L-39.164 -192.07L-37.726 -190.16L-36.2881 -192.07Z" fill="#005E00"/>
  <path d="M-18.2124 -192.07L-19.6504 -193.98L-21.0883 -192.07L-19.6504 -190.16L-18.2124 -192.07Z" fill="#005E00"/>
  <path d="M-0.136597 -192.07L-1.57452 -193.98L-3.01244 -192.07L-1.57452 -190.16L-0.136597 -192.07Z" fill="#005E00"/>
  <path d="M17.9393 -192.07L16.5013 -193.98L15.0634 -192.07L16.5013 -190.16L17.9393 -192.07Z" fill="#005E00"/>
  <path d="M36.0149 -192.07L34.577 -193.98L33.1391 -192.07L34.577 -190.16L36.0149 -192.07Z" fill="#005E00"/>
  <path d="M54.0907 -192.07L52.6528 -193.98L51.2149 -192.07L52.6528 -190.16L54.0907 -192.07Z" fill="#005E00"/>
  <path d="M72.1664 -192.07L70.7285 -193.98L69.2906 -192.07L70.7285 -190.16L72.1664 -192.07Z" fill="#005E00"/>
  <path d="M90.2422 -192.07L88.8043 -193.98L87.3664 -192.07L88.8043 -190.16L90.2422 -192.07Z" fill="#005E00"/>
  <path d="M108.318 -192.07L106.88 -193.98L105.442 -192.07L106.88 -190.16L108.318 -192.07Z" fill="#005E00"/>
  <path d="M126.394 -192.07L124.956 -193.98L123.518 -192.07L124.956 -190.16L126.394 -192.07Z" fill="#005E00"/>
  <path d="M144.47 -192.07L143.032 -193.98L141.594 -192.07L143.032 -190.16L144.47 -192.07Z" fill="#005E00"/>
  <path d="M162.545 -192.07L161.108 -193.98L159.67 -192.07L161.108 -190.16L162.545 -192.07Z" fill="#005E00"/>
  <path d="M180.621 -192.07L179.183 -193.98L177.745 -192.07L179.183 -190.16L180.621 -192.07Z" fill="#005E00"/>
  <path d="M198.697 -192.07L197.259 -193.98L195.821 -192.07L197.259 -190.16L198.697 -192.07Z" fill="#005E00"/>
  <path d="M216.773 -192.07L215.335 -193.98L213.897 -192.07L215.335 -190.16L216.773 -192.07Z" fill="#005E00"/>
  <path d="M234.848 -192.07L233.411 -193.98L231.973 -192.07L233.411 -190.16L234.848 -192.07Z" fill="#005E00"/>
  <path d="M252.924 -192.07L251.486 -193.98L250.048 -192.07L251.486 -190.16L252.924 -192.07Z" fill="#005E00"/>
  <path d="M271 -192.07L269.562 -193.98L268.124 -192.07L269.562 -190.16L271 -192.07Z" fill="#005E00"/>
  <path d="M-54.364 -168.06L-55.8019 -169.97L-57.2398 -168.06L-55.8019 -166.15L-54.364 -168.06Z" fill="#005E00"/>
  <path d="M-36.2881 -168.06L-37.726 -169.97L-39.164 -168.06L-37.726 -166.15L-36.2881 -168.06Z" fill="#005E00"/>
  <path d="M-18.2124 -168.06L-19.6504 -169.97L-21.0883 -168.06L-19.6504 -166.15L-18.2124 -168.06Z" fill="#005E00"/>
  <path d="M-0.136597 -168.06L-1.57452 -169.97L-3.01244 -168.06L-1.57452 -166.15L-0.136597 -168.06Z" fill="#005E00"/>
  <path d="M17.9393 -168.06L16.5013 -169.97L15.0634 -168.06L16.5013 -166.15L17.9393 -168.06Z" fill="#005E00"/>
  <path d="M36.0149 -168.06L34.577 -169.97L33.1391 -168.06L34.577 -166.15L36.0149 -168.06Z" fill="#005E00"/>
  <path d="M54.0907 -168.06L52.6528 -169.97L51.2149 -168.06L52.6528 -166.15L54.0907 -168.06Z" fill="#005E00"/>
  <path d="M72.1664 -168.06L70.7285 -169.97L69.2906 -168.06L70.7285 -166.15L72.1664 -168.06Z" fill="#005E00"/>
  <path d="M90.2422 -168.06L88.8043 -169.97L87.3664 -168.06L88.8043 -166.15L90.2422 -168.06Z" fill="#005E00"/>
  <path d="M108.318 -168.06L106.88 -169.97L105.442 -168.06L106.88 -166.15L108.318 -168.06Z" fill="#005E00"/>
  <path d="M126.394 -168.06L124.956 -169.97L123.518 -168.06L124.956 -166.15L126.394 -168.06Z" fill="#005E00"/>
  <path d="M144.47 -168.06L143.032 -169.97L141.594 -168.06L143.032 -166.15L144.47 -168.06Z" fill="#005E00"/>
  <path d="M162.545 -168.06L161.108 -169.97L159.67 -168.06L161.108 -166.15L162.545 -168.06Z" fill="#005E00"/>
  <path d="M180.621 -168.06L179.183 -169.97L177.745 -168.06L179.183 -166.15L180.621 -168.06Z" fill="#005E00"/>
  <path d="M198.697 -168.06L197.259 -169.97L195.821 -168.06L197.259 -166.15L198.697 -168.06Z" fill="#005E00"/>
  <path d="M216.773 -168.06L215.335 -169.97L213.897 -168.06L215.335 -166.15L216.773 -168.06Z" fill="#005E00"/>
  <path d="M234.848 -168.06L233.411 -169.97L231.973 -168.06L233.411 -166.15L234.848 -168.06Z" fill="#005E00"/>
  <path d="M252.924 -168.06L251.486 -169.97L250.048 -168.06L251.486 -166.15L252.924 -168.06Z" fill="#005E00"/>
  <path d="M271 -168.06L269.562 -169.97L268.124 -168.06L269.562 -166.15L271 -168.06Z" fill="#005E00"/>
  <path d="M-54.364 -144.05L-55.8019 -145.96L-57.2398 -144.05L-55.8019 -142.14L-54.364 -144.05Z" fill="#005E00"/>
  <path d="M-36.2881 -144.05L-37.726 -145.96L-39.164 -144.05L-37.726 -142.14L-36.2881 -144.05Z" fill="#005E00"/>
  <path d="M-18.2124 -144.05L-19.6504 -145.96L-21.0883 -144.05L-19.6504 -142.14L-18.2124 -144.05Z" fill="#005E00"/>
  <path d="M-0.136597 -144.05L-1.57452 -145.96L-3.01244 -144.05L-1.57452 -142.14L-0.136597 -144.05Z" fill="#005E00"/>
  <path d="M17.9393 -144.05L16.5013 -145.96L15.0634 -144.05L16.5013 -142.14L17.9393 -144.05Z" fill="#005E00"/>
  <path d="M36.0149 -144.05L34.577 -145.96L33.1391 -144.05L34.577 -142.14L36.0149 -144.05Z" fill="#005E00"/>
  <path d="M54.0907 -144.05L52.6528 -145.96L51.2149 -144.05L52.6528 -142.14L54.0907 -144.05Z" fill="#005E00"/>
  <path d="M72.1664 -144.05L70.7285 -145.96L69.2906 -144.05L70.7285 -142.14L72.1664 -144.05Z" fill="#005E00"/>
  <path d="M90.2422 -144.05L88.8043 -145.96L87.3664 -144.05L88.8043 -142.14L90.2422 -144.05Z" fill="#005E00"/>
  <path d="M108.318 -144.05L106.88 -145.96L105.442 -144.05L106.88 -142.14L108.318 -144.05Z" fill="#005E00"/>
  <path d="M126.394 -144.05L124.956 -145.96L123.518 -144.05L124.956 -142.14L126.394 -144.05Z" fill="#005E00"/>
  <path d="M144.47 -144.05L143.032 -145.96L141.594 -144.05L143.032 -142.14L144.47 -144.05Z" fill="#005E00"/>
  <path d="M162.545 -144.05L161.108 -145.96L159.67 -144.05L161.108 -142.14L162.545 -144.05Z" fill="#005E00"/>
  <path d="M180.621 -144.05L179.183 -145.96L177.745 -144.05L179.183 -142.14L180.621 -144.05Z" fill="#005E00"/>
  <path d="M198.697 -144.05L197.259 -145.96L195.821 -144.05L197.259 -142.14L198.697 -144.05Z" fill="#005E00"/>
  <path d="M216.773 -144.05L215.335 -145.96L213.897 -144.05L215.335 -142.14L216.773 -144.05Z" fill="#005E00"/>
  <path d="M234.848 -144.05L233.411 -145.96L231.973 -144.05L233.411 -142.14L234.848 -144.05Z" fill="#005E00"/>
  <path d="M252.924 -144.05L251.486 -145.96L250.048 -144.05L251.486 -142.14L252.924 -144.05Z" fill="#005E00"/>
  <path d="M271 -144.05L269.562 -145.96L268.124 -144.05L269.562 -142.14L271 -144.05Z" fill="#005E00"/>
  <path d="M-54.364 -120.04L-55.8019 -121.95L-57.2398 -120.04L-55.8019 -118.13L-54.364 -120.04Z" fill="#005E00"/>
  <path d="M-36.2881 -120.04L-37.726 -121.95L-39.164 -120.04L-37.726 -118.13L-36.2881 -120.04Z" fill="#005E00"/>
  <path d="M-18.2124 -120.04L-19.6504 -121.95L-21.0883 -120.04L-19.6504 -118.13L-18.2124 -120.04Z" fill="#005E00"/>
  <path d="M-0.136597 -120.04L-1.57452 -121.95L-3.01244 -120.04L-1.57452 -118.13L-0.136597 -120.04Z" fill="#005E00"/>
  <path d="M17.9393 -120.04L16.5013 -121.95L15.0634 -120.04L16.5013 -118.13L17.9393 -120.04Z" fill="#005E00"/>
  <path d="M36.0149 -120.04L34.577 -121.95L33.1391 -120.04L34.577 -118.13L36.0149 -120.04Z" fill="#005E00"/>
  <path d="M54.0907 -120.04L52.6528 -121.95L51.2149 -120.04L52.6528 -118.13L54.0907 -120.04Z" fill="#005E00"/>
  <path d="M72.1664 -120.04L70.7285 -121.95L69.2906 -120.04L70.7285 -118.13L72.1664 -120.04Z" fill="#005E00"/>
  <path d="M90.2422 -120.04L88.8043 -121.95L87.3664 -120.04L88.8043 -118.13L90.2422 -120.04Z" fill="#005E00"/>
  <path d="M108.318 -120.04L106.88 -121.95L105.442 -120.04L106.88 -118.13L108.318 -120.04Z" fill="#005E00"/>
  <path d="M126.394 -120.04L124.956 -121.95L123.518 -120.04L124.956 -118.13L126.394 -120.04Z" fill="#005E00"/>
  <path d="M144.47 -120.04L143.032 -121.95L141.594 -120.04L143.032 -118.13L144.47 -120.04Z" fill="#005E00"/>
  <path d="M162.545 -120.04L161.108 -121.95L159.67 -120.04L161.108 -118.13L162.545 -120.04Z" fill="#005E00"/>
  <path d="M180.621 -120.04L179.183 -121.95L177.745 -120.04L179.183 -118.13L180.621 -120.04Z" fill="#005E00"/>
  <path d="M198.697 -120.04L197.259 -121.95L195.821 -120.04L197.259 -118.13L198.697 -120.04Z" fill="#005E00"/>
  <path d="M216.773 -120.04L215.335 -121.95L213.897 -120.04L215.335 -118.13L216.773 -120.04Z" fill="#005E00"/>
  <path d="M234.848 -120.04L233.411 -121.95L231.973 -120.04L233.411 -118.13L234.848 -120.04Z" fill="#005E00"/>
  <path d="M252.924 -120.04L251.486 -121.95L250.048 -120.04L251.486 -118.13L252.924 -120.04Z" fill="#005E00"/>
  <path d="M271 -120.04L269.562 -121.95L268.124 -120.04L269.562 -118.13L271 -120.04Z" fill="#005E00"/>
  <path d="M-54.364 -96.0298L-55.8019 -97.9398L-57.2398 -96.0298L-55.8019 -94.1198L-54.364 -96.0298Z" fill="#005E00"/>
  <path d="M-36.2881 -96.0298L-37.726 -97.9398L-39.164 -96.0298L-37.726 -94.1198L-36.2881 -96.0298Z" fill="#005E00"/>
  <path d="M-18.2124 -96.0298L-19.6504 -97.9398L-21.0883 -96.0298L-19.6504 -94.1198L-18.2124 -96.0298Z" fill="#005E00"/>
  <path d="M-0.136597 -96.0298L-1.57452 -97.9398L-3.01244 -96.0298L-1.57452 -94.1198L-0.136597 -96.0298Z" fill="#005E00"/>
  <path d="M17.9393 -96.0298L16.5013 -97.9398L15.0634 -96.0298L16.5013 -94.1198L17.9393 -96.0298Z" fill="#005E00"/>
  <path d="M36.0149 -96.0298L34.577 -97.9398L33.1391 -96.0298L34.577 -94.1198L36.0149 -96.0298Z" fill="#005E00"/>
  <path d="M54.0907 -96.0298L52.6528 -97.9398L51.2149 -96.0298L52.6528 -94.1198L54.0907 -96.0298Z" fill="#005E00"/>
  <path d="M72.1664 -96.0298L70.7285 -97.9398L69.2906 -96.0298L70.7285 -94.1198L72.1664 -96.0298Z" fill="#005E00"/>
  <path d="M90.2422 -96.0298L88.8043 -97.9398L87.3664 -96.0298L88.8043 -94.1198L90.2422 -96.0298Z" fill="#005E00"/>
  <path d="M108.318 -96.0298L106.88 -97.9398L105.442 -96.0298L106.88 -94.1198L108.318 -96.0298Z" fill="#005E00"/>
  <path d="M126.394 -96.0298L124.956 -97.9398L123.518 -96.0298L124.956 -94.1198L126.394 -96.0298Z" fill="#005E00"/>
  <path d="M144.47 -96.0298L143.032 -97.9398L141.594 -96.0298L143.032 -94.1198L144.47 -96.0298Z" fill="#005E00"/>
  <path d="M162.545 -96.0298L161.108 -97.9398L159.67 -96.0298L161.108 -94.1198L162.545 -96.0298Z" fill="#005E00"/>
  <path d="M180.621 -96.0298L179.183 -97.9398L177.745 -96.0298L179.183 -94.1198L180.621 -96.0298Z" fill="#005E00"/>
  <path d="M198.697 -96.0298L197.259 -97.9398L195.821 -96.0298L197.259 -94.1198L198.697 -96.0298Z" fill="#005E00"/>
  <path d="M216.773 -96.0298L215.335 -97.9398L213.897 -96.0298L215.335 -94.1198L216.773 -96.0298Z" fill="#005E00"/>
  <path d="M234.848 -96.0298L233.411 -97.9398L231.973 -96.0298L233.411 -94.1198L234.848 -96.0298Z" fill="#005E00"/>
  <path d="M252.924 -96.0298L251.486 -97.9398L250.048 -96.0298L251.486 -94.1198L252.924 -96.0298Z" fill="#005E00"/>
  <path d="M271 -96.0298L269.562 -97.9398L268.124 -96.0298L269.562 -94.1198L271 -96.0298Z" fill="#005E00"/>
  <path d="M-54.364 -72.0203L-55.8019 -73.9303L-57.2398 -72.0203L-55.8019 -70.1103L-54.364 -72.0203Z" fill="#005E00"/>
  <path d="M-36.2881 -72.0203L-37.726 -73.9303L-39.164 -72.0203L-37.726 -70.1103L-36.2881 -72.0203Z" fill="#005E00"/>
  <path d="M-18.2124 -72.0203L-19.6504 -73.9303L-21.0883 -72.0203L-19.6504 -70.1103L-18.2124 -72.0203Z" fill="#005E00"/>
  <path d="M-0.136597 -72.0203L-1.57452 -73.9303L-3.01244 -72.0203L-1.57452 -70.1103L-0.136597 -72.0203Z" fill="#005E00"/>
  <path d="M17.9393 -72.0203L16.5013 -73.9303L15.0634 -72.0203L16.5013 -70.1103L17.9393 -72.0203Z" fill="#005E00"/>
  <path d="M36.0149 -72.0203L34.577 -73.9303L33.1391 -72.0203L34.577 -70.1103L36.0149 -72.0203Z" fill="#005E00"/>
  <path d="M54.0907 -72.0203L52.6528 -73.9303L51.2149 -72.0203L52.6528 -70.1103L54.0907 -72.0203Z" fill="#005E00"/>
  <path d="M72.1664 -72.0203L70.7285 -73.9303L69.2906 -72.0203L70.7285 -70.1103L72.1664 -72.0203Z" fill="#005E00"/>
  <path d="M90.2422 -72.0203L88.8043 -73.9303L87.3664 -72.0203L88.8043 -70.1103L90.2422 -72.0203Z" fill="#005E00"/>
  <path d="M108.318 -72.0203L106.88 -73.9303L105.442 -72.0203L106.88 -70.1103L108.318 -72.0203Z" fill="#005E00"/>
  <path d="M126.394 -72.0203L124.956 -73.9303L123.518 -72.0203L124.956 -70.1103L126.394 -72.0203Z" fill="#005E00"/>
  <path d="M144.47 -72.0203L143.032 -73.9303L141.594 -72.0203L143.032 -70.1103L144.47 -72.0203Z" fill="#005E00"/>
  <path d="M162.545 -72.0203L161.108 -73.9303L159.67 -72.0203L161.108 -70.1103L162.545 -72.0203Z" fill="#005E00"/>
  <path d="M180.621 -72.0203L179.183 -73.9303L177.745 -72.0203L179.183 -70.1103L180.621 -72.0203Z" fill="#005E00"/>
  <path d="M198.697 -72.0203L197.259 -73.9303L195.821 -72.0203L197.259 -70.1103L198.697 -72.0203Z" fill="#005E00"/>
  <path d="M216.773 -72.0203L215.335 -73.9303L213.897 -72.0203L215.335 -70.1103L216.773 -72.0203Z" fill="#005E00"/>
  <path d="M234.848 -72.0203L233.411 -73.9303L231.973 -72.0203L233.411 -70.1103L234.848 -72.0203Z" fill="#005E00"/>
  <path d="M252.924 -72.0203L251.486 -73.9303L250.048 -72.0203L251.486 -70.1103L252.924 -72.0203Z" fill="#005E00"/>
  <path d="M271 -72.0203L269.562 -73.9303L268.124 -72.0203L269.562 -70.1103L271 -72.0203Z" fill="#005E00"/>
  <path d="M-54.364 -48.0099L-55.8019 -49.9199L-57.2398 -48.0099L-55.8019 -46.1L-54.364 -48.0099Z" fill="#005E00"/>
  <path d="M-36.2881 -48.0099L-37.726 -49.9199L-39.164 -48.0099L-37.726 -46.1L-36.2881 -48.0099Z" fill="#005E00"/>
  <path d="M-18.2124 -48.0099L-19.6504 -49.9199L-21.0883 -48.0099L-19.6504 -46.1L-18.2124 -48.0099Z" fill="#005E00"/>
  <path d="M-0.136597 -48.0099L-1.57452 -49.9199L-3.01244 -48.0099L-1.57452 -46.1L-0.136597 -48.0099Z" fill="#005E00"/>
  <path d="M17.9393 -48.0099L16.5013 -49.9199L15.0634 -48.0099L16.5013 -46.1L17.9393 -48.0099Z" fill="#005E00"/>
  <path d="M36.0149 -48.0099L34.577 -49.9199L33.1391 -48.0099L34.577 -46.1L36.0149 -48.0099Z" fill="#005E00"/>
  <path d="M54.0907 -48.0099L52.6528 -49.9199L51.2149 -48.0099L52.6528 -46.1L54.0907 -48.0099Z" fill="#005E00"/>
  <path d="M72.1664 -48.0099L70.7285 -49.9199L69.2906 -48.0099L70.7285 -46.1L72.1664 -48.0099Z" fill="#005E00"/>
  <path d="M90.2422 -48.0099L88.8043 -49.9199L87.3664 -48.0099L88.8043 -46.1L90.2422 -48.0099Z" fill="#005E00"/>
  <path d="M108.318 -48.0099L106.88 -49.9199L105.442 -48.0099L106.88 -46.1L108.318 -48.0099Z" fill="#005E00"/>
  <path d="M126.394 -48.0099L124.956 -49.9199L123.518 -48.0099L124.956 -46.1L126.394 -48.0099Z" fill="#005E00"/>
  <path d="M144.47 -48.0099L143.032 -49.9199L141.594 -48.0099L143.032 -46.1L144.47 -48.0099Z" fill="#005E00"/>
  <path d="M162.545 -48.0099L161.108 -49.9199L159.67 -48.0099L161.108 -46.1L162.545 -48.0099Z" fill="#005E00"/>
  <path d="M180.621 -48.0099L179.183 -49.9199L177.745 -48.0099L179.183 -46.1L180.621 -48.0099Z" fill="#005E00"/>
  <path d="M198.697 -48.0099L197.259 -49.9199L195.821 -48.0099L197.259 -46.1L198.697 -48.0099Z" fill="#005E00"/>
  <path d="M216.773 -48.0099L215.335 -49.9199L213.897 -48.0099L215.335 -46.1L216.773 -48.0099Z" fill="#005E00"/>
  <path d="M234.848 -48.0099L233.411 -49.9199L231.973 -48.0099L233.411 -46.1L234.848 -48.0099Z" fill="#005E00"/>
  <path d="M252.924 -48.0099L251.486 -49.9199L250.048 -48.0099L251.486 -46.1L252.924 -48.0099Z" fill="#005E00"/>
  <path d="M271 -48.0099L269.562 -49.9199L268.124 -48.0099L269.562 -46.1L271 -48.0099Z" fill="#005E00"/>
  <path d="M-54.364 -23.9999L-55.8019 -25.9099L-57.2398 -23.9999L-55.8019 -22.0899L-54.364 -23.9999Z" fill="#005E00"/>
  <path d="M-36.2881 -23.9999L-37.726 -25.9099L-39.164 -23.9999L-37.726 -22.0899L-36.2881 -23.9999Z" fill="#005E00"/>
  <path d="M-18.2124 -23.9999L-19.6504 -25.9099L-21.0883 -23.9999L-19.6504 -22.0899L-18.2124 -23.9999Z" fill="#005E00"/>
  <path d="M-0.136597 -23.9999L-1.57452 -25.9099L-3.01244 -23.9999L-1.57452 -22.0899L-0.136597 -23.9999Z" fill="#005E00"/>
  <path d="M17.9393 -23.9999L16.5013 -25.9099L15.0634 -23.9999L16.5013 -22.0899L17.9393 -23.9999Z" fill="#005E00"/>
  <path d="M36.0149 -23.9999L34.577 -25.9099L33.1391 -23.9999L34.577 -22.0899L36.0149 -23.9999Z" fill="#005E00"/>
  <path d="M54.0907 -23.9999L52.6528 -25.9099L51.2149 -23.9999L52.6528 -22.0899L54.0907 -23.9999Z" fill="#005E00"/>
  <path d="M72.1664 -23.9999L70.7285 -25.9099L69.2906 -23.9999L70.7285 -22.0899L72.1664 -23.9999Z" fill="#005E00"/>
  <path d="M90.2422 -23.9999L88.8043 -25.9099L87.3664 -23.9999L88.8043 -22.0899L90.2422 -23.9999Z" fill="#005E00"/>
  <path d="M108.318 -23.9999L106.88 -25.9099L105.442 -23.9999L106.88 -22.0899L108.318 -23.9999Z" fill="#005E00"/>
  <path d="M126.394 -23.9999L124.956 -25.9099L123.518 -23.9999L124.956 -22.0899L126.394 -23.9999Z" fill="#005E00"/>
  <path d="M144.47 -23.9999L143.032 -25.9099L141.594 -23.9999L143.032 -22.0899L144.47 -23.9999Z" fill="#005E00"/>
  <path d="M162.545 -23.9999L161.108 -25.9099L159.67 -23.9999L161.108 -22.0899L162.545 -23.9999Z" fill="#005E00"/>
  <path d="M180.621 -23.9999L179.183 -25.9099L177.745 -23.9999L179.183 -22.0899L180.621 -23.9999Z" fill="#005E00"/>
  <path d="M198.697 -23.9999L197.259 -25.9099L195.821 -23.9999L197.259 -22.0899L198.697 -23.9999Z" fill="#005E00"/>
  <path d="M216.773 -23.9999L215.335 -25.9099L213.897 -23.9999L215.335 -22.0899L216.773 -23.9999Z" fill="#005E00"/>
  <path d="M234.848 -23.9999L233.411 -25.9099L231.973 -23.9999L233.411 -22.0899L234.848 -23.9999Z" fill="#005E00"/>
  <path d="M252.924 -23.9999L251.486 -25.9099L250.048 -23.9999L251.486 -22.0899L252.924 -23.9999Z" fill="#005E00"/>
  <path d="M271 -23.9999L269.562 -25.9099L268.124 -23.9999L269.562 -22.0899L271 -23.9999Z" fill="#005E00"/>
  <path d="M-54.364 0.00991821L-55.8019 -1.90007L-57.2398 0.00991821L-55.8019 1.91991L-54.364 0.00991821Z" fill="#005E00"/>
  <path d="M-36.2881 0.00991821L-37.726 -1.90007L-39.164 0.00991821L-37.726 1.91991L-36.2881 0.00991821Z" fill="#005E00"/>
  <path d="M-18.2124 0.00991821L-19.6504 -1.90007L-21.0883 0.00991821L-19.6504 1.91991L-18.2124 0.00991821Z" fill="#005E00"/>
  <path d="M-0.136597 0.00991821L-1.57452 -1.90007L-3.01244 0.00991821L-1.57452 1.91991L-0.136597 0.00991821Z" fill="#005E00"/>
  <path d="M17.9393 0.00991821L16.5013 -1.90007L15.0634 0.00991821L16.5013 1.91991L17.9393 0.00991821Z" fill="#005E00"/>
  <path d="M36.0149 0.00991821L34.577 -1.90007L33.1391 0.00991821L34.577 1.91991L36.0149 0.00991821Z" fill="#005E00"/>
  <path d="M54.0907 0.00991821L52.6528 -1.90007L51.2149 0.00991821L52.6528 1.91991L54.0907 0.00991821Z" fill="#005E00"/>
  <path d="M72.1664 0.00991821L70.7285 -1.90007L69.2906 0.00991821L70.7285 1.91991L72.1664 0.00991821Z" fill="#005E00"/>
  <path d="M90.2422 0.00991821L88.8043 -1.90007L87.3664 0.00991821L88.8043 1.91991L90.2422 0.00991821Z" fill="#005E00"/>
  <path d="M108.318 0.00991821L106.88 -1.90007L105.442 0.00991821L106.88 1.91991L108.318 0.00991821Z" fill="#005E00"/>
  <path d="M126.394 0.00991821L124.956 -1.90007L123.518 0.00991821L124.956 1.91991L126.394 0.00991821Z" fill="#005E00"/>
  <path d="M144.47 0.00991821L143.032 -1.90007L141.594 0.00991821L143.032 1.91991L144.47 0.00991821Z" fill="#005E00"/>
  <path d="M162.545 0.00991821L161.108 -1.90007L159.67 0.00991821L161.108 1.91991L162.545 0.00991821Z" fill="#005E00"/>
  <path d="M180.621 0.00991821L179.183 -1.90007L177.745 0.00991821L179.183 1.91991L180.621 0.00991821Z" fill="#005E00"/>
  <path d="M198.697 0.00991821L197.259 -1.90007L195.821 0.00991821L197.259 1.91991L198.697 0.00991821Z" fill="#005E00"/>
  <path d="M216.773 0.00991821L215.335 -1.90007L213.897 0.00991821L215.335 1.91991L216.773 0.00991821Z" fill="#005E00"/>
  <path d="M234.848 0.00991821L233.411 -1.90007L231.973 0.00991821L233.411 1.91991L234.848 0.00991821Z" fill="#005E00"/>
  <path d="M252.924 0.00991821L251.486 -1.90007L250.048 0.00991821L251.486 1.91991L252.924 0.00991821Z" fill="#005E00"/>
  <path d="M271 0.00991821L269.562 -1.90007L268.124 0.00991821L269.562 1.91991L271 0.00991821Z" fill="#005E00"/>
  <path d="M-54.364 24.0197L-55.8019 22.1097L-57.2398 24.0197L-55.8019 25.9297L-54.364 24.0197Z" fill="#005E00"/>
  <path d="M-36.2881 24.0197L-37.726 22.1097L-39.164 24.0197L-37.726 25.9297L-36.2881 24.0197Z" fill="#005E00"/>
  <path d="M-18.2124 24.0197L-19.6504 22.1097L-21.0883 24.0197L-19.6504 25.9297L-18.2124 24.0197Z" fill="#005E00"/>
  <path d="M-0.136597 24.0197L-1.57452 22.1097L-3.01244 24.0197L-1.57452 25.9297L-0.136597 24.0197Z" fill="#005E00"/>
  <path d="M17.9393 24.0197L16.5013 22.1097L15.0634 24.0197L16.5013 25.9297L17.9393 24.0197Z" fill="#005E00"/>
  <path d="M36.0149 24.0197L34.577 22.1097L33.1391 24.0197L34.577 25.9297L36.0149 24.0197Z" fill="#005E00"/>
  <path d="M54.0907 24.0197L52.6528 22.1097L51.2149 24.0197L52.6528 25.9297L54.0907 24.0197Z" fill="#005E00"/>
  <path d="M72.1664 24.0197L70.7285 22.1097L69.2906 24.0197L70.7285 25.9297L72.1664 24.0197Z" fill="#005E00"/>
  <path d="M90.2422 24.0197L88.8043 22.1097L87.3664 24.0197L88.8043 25.9297L90.2422 24.0197Z" fill="#005E00"/>
  <path d="M108.318 24.0197L106.88 22.1097L105.442 24.0197L106.88 25.9297L108.318 24.0197Z" fill="#005E00"/>
  <path d="M126.394 24.0197L124.956 22.1097L123.518 24.0197L124.956 25.9297L126.394 24.0197Z" fill="#005E00"/>
  <path d="M144.47 24.0197L143.032 22.1097L141.594 24.0197L143.032 25.9297L144.47 24.0197Z" fill="#005E00"/>
  <path d="M162.545 24.0197L161.108 22.1097L159.67 24.0197L161.108 25.9297L162.545 24.0197Z" fill="#005E00"/>
  <path d="M180.621 24.0197L179.183 22.1097L177.745 24.0197L179.183 25.9297L180.621 24.0197Z" fill="#005E00"/>
  <path d="M198.697 24.0197L197.259 22.1097L195.821 24.0197L197.259 25.9297L198.697 24.0197Z" fill="#005E00"/>
  <path d="M216.773 24.0197L215.335 22.1097L213.897 24.0197L215.335 25.9297L216.773 24.0197Z" fill="#005E00"/>
  <path d="M234.848 24.0197L233.411 22.1097L231.973 24.0197L233.411 25.9297L234.848 24.0197Z" fill="#005E00"/>
  <path d="M252.924 24.0197L251.486 22.1097L250.048 24.0197L251.486 25.9297L252.924 24.0197Z" fill="#005E00"/>
  <path d="M271 24.0197L269.562 22.1097L268.124 24.0197L269.562 25.9297L271 24.0197Z" fill="#005E00"/>
  <path d="M-54.364 48.0301L-55.8019 46.1201L-57.2398 48.0301L-55.8019 49.9401L-54.364 48.0301Z" fill="#005E00"/>
  <path d="M-36.2881 48.0301L-37.726 46.1201L-39.164 48.0301L-37.726 49.9401L-36.2881 48.0301Z" fill="#005E00"/>
  <path d="M-18.2124 48.0301L-19.6504 46.1201L-21.0883 48.0301L-19.6504 49.9401L-18.2124 48.0301Z" fill="#005E00"/>
  <path d="M-0.136597 48.0301L-1.57452 46.1201L-3.01244 48.0301L-1.57452 49.9401L-0.136597 48.0301Z" fill="#005E00"/>
  <path d="M17.9393 48.0301L16.5013 46.1201L15.0634 48.0301L16.5013 49.9401L17.9393 48.0301Z" fill="#005E00"/>
  <path d="M36.0149 48.0301L34.577 46.1201L33.1391 48.0301L34.577 49.9401L36.0149 48.0301Z" fill="#005E00"/>
  <path d="M54.0907 48.0301L52.6528 46.1201L51.2149 48.0301L52.6528 49.9401L54.0907 48.0301Z" fill="#005E00"/>
  <path d="M72.1664 48.0301L70.7285 46.1201L69.2906 48.0301L70.7285 49.9401L72.1664 48.0301Z" fill="#005E00"/>
  <path d="M90.2422 48.0301L88.8043 46.1201L87.3664 48.0301L88.8043 49.9401L90.2422 48.0301Z" fill="#005E00"/>
  <path d="M108.318 48.0301L106.88 46.1201L105.442 48.0301L106.88 49.9401L108.318 48.0301Z" fill="#005E00"/>
  <path d="M126.394 48.0301L124.956 46.1201L123.518 48.0301L124.956 49.9401L126.394 48.0301Z" fill="#005E00"/>
  <path d="M144.47 48.0301L143.032 46.1201L141.594 48.0301L143.032 49.9401L144.47 48.0301Z" fill="#005E00"/>
  <path d="M162.545 48.0301L161.108 46.1201L159.67 48.0301L161.108 49.9401L162.545 48.0301Z" fill="#005E00"/>
  <path d="M180.621 48.0301L179.183 46.1201L177.745 48.0301L179.183 49.9401L180.621 48.0301Z" fill="#005E00"/>
  <path d="M198.697 48.0301L197.259 46.1201L195.821 48.0301L197.259 49.9401L198.697 48.0301Z" fill="#005E00"/>
  <path d="M216.773 48.0301L215.335 46.1201L213.897 48.0301L215.335 49.9401L216.773 48.0301Z" fill="#005E00"/>
  <path d="M234.848 48.0301L233.411 46.1201L231.973 48.0301L233.411 49.9401L234.848 48.0301Z" fill="#005E00"/>
  <path d="M252.924 48.0301L251.486 46.1201L250.048 48.0301L251.486 49.9401L252.924 48.0301Z" fill="#005E00"/>
  <path d="M271 48.0301L269.562 46.1201L268.124 48.0301L269.562 49.9401L271 48.0301Z" fill="#005E00"/>
  <path d="M-54.364 72.0399L-55.8019 70.1299L-57.2398 72.0399L-55.8019 73.9499L-54.364 72.0399Z" fill="#005E00"/>
  <path d="M-36.2881 72.0399L-37.726 70.1299L-39.164 72.0399L-37.726 73.9499L-36.2881 72.0399Z" fill="#005E00"/>
  <path d="M-18.2124 72.0399L-19.6504 70.1299L-21.0883 72.0399L-19.6504 73.9499L-18.2124 72.0399Z" fill="#005E00"/>
  <path d="M-0.136597 72.0399L-1.57452 70.1299L-3.01244 72.0399L-1.57452 73.9499L-0.136597 72.0399Z" fill="#005E00"/>
  <path d="M17.9393 72.0399L16.5013 70.1299L15.0634 72.0399L16.5013 73.9499L17.9393 72.0399Z" fill="#005E00"/>
  <path d="M36.0149 72.0399L34.577 70.1299L33.1391 72.0399L34.577 73.9499L36.0149 72.0399Z" fill="#005E00"/>
  <path d="M54.0907 72.0399L52.6528 70.1299L51.2149 72.0399L52.6528 73.9499L54.0907 72.0399Z" fill="#005E00"/>
  <path d="M72.1664 72.0399L70.7285 70.1299L69.2906 72.0399L70.7285 73.9499L72.1664 72.0399Z" fill="#005E00"/>
  <path d="M90.2422 72.0399L88.8043 70.1299L87.3664 72.0399L88.8043 73.9499L90.2422 72.0399Z" fill="#005E00"/>
  <path d="M108.318 72.0399L106.88 70.1299L105.442 72.0399L106.88 73.9499L108.318 72.0399Z" fill="#005E00"/>
  <path d="M126.394 72.0399L124.956 70.1299L123.518 72.0399L124.956 73.9499L126.394 72.0399Z" fill="#005E00"/>
  <path d="M144.47 72.0399L143.032 70.1299L141.594 72.0399L143.032 73.9499L144.47 72.0399Z" fill="#005E00"/>
  <path d="M162.545 72.0399L161.108 70.1299L159.67 72.0399L161.108 73.9499L162.545 72.0399Z" fill="#005E00"/>
  <path d="M180.621 72.0399L179.183 70.1299L177.745 72.0399L179.183 73.9499L180.621 72.0399Z" fill="#005E00"/>
  <path d="M198.697 72.0399L197.259 70.1299L195.821 72.0399L197.259 73.9499L198.697 72.0399Z" fill="#005E00"/>
  <path d="M216.773 72.0399L215.335 70.1299L213.897 72.0399L215.335 73.9499L216.773 72.0399Z" fill="#005E00"/>
  <path d="M234.848 72.0399L233.411 70.1299L231.973 72.0399L233.411 73.9499L234.848 72.0399Z" fill="#005E00"/>
  <path d="M252.924 72.0399L251.486 70.1299L250.048 72.0399L251.486 73.9499L252.924 72.0399Z" fill="#005E00"/>
  <path d="M271 72.0399L269.562 70.1299L268.124 72.0399L269.562 73.9499L271 72.0399Z" fill="#005E00"/>
  <path d="M-54.364 96.0497L-55.8019 94.1397L-57.2398 96.0497L-55.8019 97.9596L-54.364 96.0497Z" fill="#005E00"/>
  <path d="M-36.2881 96.0497L-37.726 94.1397L-39.164 96.0497L-37.726 97.9596L-36.2881 96.0497Z" fill="#005E00"/>
  <path d="M-18.2124 96.0497L-19.6504 94.1397L-21.0883 96.0497L-19.6504 97.9596L-18.2124 96.0497Z" fill="#005E00"/>
  <path d="M-0.136597 96.0497L-1.57452 94.1397L-3.01244 96.0497L-1.57452 97.9596L-0.136597 96.0497Z" fill="#005E00"/>
  <path d="M17.9393 96.0497L16.5013 94.1397L15.0634 96.0497L16.5013 97.9596L17.9393 96.0497Z" fill="#005E00"/>
  <path d="M36.0149 96.0497L34.577 94.1397L33.1391 96.0497L34.577 97.9596L36.0149 96.0497Z" fill="#005E00"/>
  <path d="M54.0907 96.0497L52.6528 94.1397L51.2149 96.0497L52.6528 97.9596L54.0907 96.0497Z" fill="#005E00"/>
  <path d="M72.1664 96.0497L70.7285 94.1397L69.2906 96.0497L70.7285 97.9596L72.1664 96.0497Z" fill="#005E00"/>
  <path d="M90.2422 96.0497L88.8043 94.1397L87.3664 96.0497L88.8043 97.9596L90.2422 96.0497Z" fill="#005E00"/>
  <path d="M108.318 96.0497L106.88 94.1397L105.442 96.0497L106.88 97.9596L108.318 96.0497Z" fill="#005E00"/>
  <path d="M126.394 96.0497L124.956 94.1397L123.518 96.0497L124.956 97.9596L126.394 96.0497Z" fill="#005E00"/>
  <path d="M144.47 96.0497L143.032 94.1397L141.594 96.0497L143.032 97.9596L144.47 96.0497Z" fill="#005E00"/>
  <path d="M162.545 96.0497L161.108 94.1397L159.67 96.0497L161.108 97.9596L162.545 96.0497Z" fill="#005E00"/>
  <path d="M180.621 96.0497L179.183 94.1397L177.745 96.0497L179.183 97.9596L180.621 96.0497Z" fill="#005E00"/>
  <path d="M198.697 96.0497L197.259 94.1397L195.821 96.0497L197.259 97.9596L198.697 96.0497Z" fill="#005E00"/>
  <path d="M216.773 96.0497L215.335 94.1397L213.897 96.0497L215.335 97.9596L216.773 96.0497Z" fill="#005E00"/>
  <path d="M234.848 96.0497L233.411 94.1397L231.973 96.0497L233.411 97.9596L234.848 96.0497Z" fill="#005E00"/>
  <path d="M252.924 96.0497L251.486 94.1397L250.048 96.0497L251.486 97.9596L252.924 96.0497Z" fill="#005E00"/>
  <path d="M271 96.0497L269.562 94.1397L268.124 96.0497L269.562 97.9596L271 96.0497Z" fill="#005E00"/>
  <path d="M-54.364 120.06L-55.8019 118.15L-57.2398 120.06L-55.8019 121.97L-54.364 120.06Z" fill="#005E00"/>
  <path d="M-36.2881 120.06L-37.726 118.15L-39.164 120.06L-37.726 121.97L-36.2881 120.06Z" fill="#005E00"/>
  <path d="M-18.2124 120.06L-19.6504 118.15L-21.0883 120.06L-19.6504 121.97L-18.2124 120.06Z" fill="#005E00"/>
  <path d="M-0.136597 120.06L-1.57452 118.15L-3.01244 120.06L-1.57452 121.97L-0.136597 120.06Z" fill="#005E00"/>
  <path d="M17.9393 120.06L16.5013 118.15L15.0634 120.06L16.5013 121.97L17.9393 120.06Z" fill="#005E00"/>
  <path d="M36.0149 120.06L34.577 118.15L33.1391 120.06L34.577 121.97L36.0149 120.06Z" fill="#005E00"/>
  <path d="M54.0907 120.06L52.6528 118.15L51.2149 120.06L52.6528 121.97L54.0907 120.06Z" fill="#005E00"/>
  <path d="M72.1664 120.06L70.7285 118.15L69.2906 120.06L70.7285 121.97L72.1664 120.06Z" fill="#005E00"/>
  <path d="M90.2422 120.06L88.8043 118.15L87.3664 120.06L88.8043 121.97L90.2422 120.06Z" fill="#005E00"/>
  <path d="M108.318 120.06L106.88 118.15L105.442 120.06L106.88 121.97L108.318 120.06Z" fill="#005E00"/>
  <path d="M126.394 120.06L124.956 118.15L123.518 120.06L124.956 121.97L126.394 120.06Z" fill="#005E00"/>
  <path d="M144.47 120.06L143.032 118.15L141.594 120.06L143.032 121.97L144.47 120.06Z" fill="#005E00"/>
  <path d="M162.545 120.06L161.108 118.15L159.67 120.06L161.108 121.97L162.545 120.06Z" fill="#005E00"/>
  <path d="M180.621 120.06L179.183 118.15L177.745 120.06L179.183 121.97L180.621 120.06Z" fill="#005E00"/>
  <path d="M198.697 120.06L197.259 118.15L195.821 120.06L197.259 121.97L198.697 120.06Z" fill="#005E00"/>
  <path d="M216.773 120.06L215.335 118.15L213.897 120.06L215.335 121.97L216.773 120.06Z" fill="#005E00"/>
  <path d="M234.848 120.06L233.411 118.15L231.973 120.06L233.411 121.97L234.848 120.06Z" fill="#005E00"/>
  <path d="M252.924 120.06L251.486 118.15L250.048 120.06L251.486 121.97L252.924 120.06Z" fill="#005E00"/>
  <path d="M271 120.06L269.562 118.15L268.124 120.06L269.562 121.97L271 120.06Z" fill="#005E00"/>
  <path d="M-54.364 144.07L-55.8019 142.16L-57.2398 144.07L-55.8019 145.98L-54.364 144.07Z" fill="#005E00"/>
  <path d="M-36.2881 144.07L-37.726 142.16L-39.164 144.07L-37.726 145.98L-36.2881 144.07Z" fill="#005E00"/>
  <path d="M-18.2124 144.07L-19.6504 142.16L-21.0883 144.07L-19.6504 145.98L-18.2124 144.07Z" fill="#005E00"/>
  <path d="M-0.136597 144.07L-1.57452 142.16L-3.01244 144.07L-1.57452 145.98L-0.136597 144.07Z" fill="#005E00"/>
  <path d="M17.9393 144.07L16.5013 142.16L15.0634 144.07L16.5013 145.98L17.9393 144.07Z" fill="#005E00"/>
  <path d="M36.0149 144.07L34.577 142.16L33.1391 144.07L34.577 145.98L36.0149 144.07Z" fill="#005E00"/>
  <path d="M54.0907 144.07L52.6528 142.16L51.2149 144.07L52.6528 145.98L54.0907 144.07Z" fill="#005E00"/>
  <path d="M72.1664 144.07L70.7285 142.16L69.2906 144.07L70.7285 145.98L72.1664 144.07Z" fill="#005E00"/>
  <path d="M90.2422 144.07L88.8043 142.16L87.3664 144.07L88.8043 145.98L90.2422 144.07Z" fill="#005E00"/>
  <path d="M108.318 144.07L106.88 142.16L105.442 144.07L106.88 145.98L108.318 144.07Z" fill="#005E00"/>
  <path d="M126.394 144.07L124.956 142.16L123.518 144.07L124.956 145.98L126.394 144.07Z" fill="#005E00"/>
  <path d="M144.47 144.07L143.032 142.16L141.594 144.07L143.032 145.98L144.47 144.07Z" fill="#005E00"/>
  <path d="M162.545 144.07L161.108 142.16L159.67 144.07L161.108 145.98L162.545 144.07Z" fill="#005E00"/>
  <path d="M180.621 144.07L179.183 142.16L177.745 144.07L179.183 145.98L180.621 144.07Z" fill="#005E00"/>
  <path d="M198.697 144.07L197.259 142.16L195.821 144.07L197.259 145.98L198.697 144.07Z" fill="#005E00"/>
  <path d="M216.773 144.07L215.335 142.16L213.897 144.07L215.335 145.98L216.773 144.07Z" fill="#005E00"/>
  <path d="M234.848 144.07L233.411 142.16L231.973 144.07L233.411 145.98L234.848 144.07Z" fill="#005E00"/>
  <path d="M252.924 144.07L251.486 142.16L250.048 144.07L251.486 145.98L252.924 144.07Z" fill="#005E00"/>
  <path d="M271 144.07L269.562 142.16L268.124 144.07L269.562 145.98L271 144.07Z" fill="#005E00"/>
  <path d="M-54.364 168.08L-55.8019 166.17L-57.2398 168.08L-55.8019 169.99L-54.364 168.08Z" fill="#005E00"/>
  <path d="M-36.2881 168.08L-37.726 166.17L-39.164 168.08L-37.726 169.99L-36.2881 168.08Z" fill="#005E00"/>
  <path d="M-18.2124 168.08L-19.6504 166.17L-21.0883 168.08L-19.6504 169.99L-18.2124 168.08Z" fill="#005E00"/>
  <path d="M-0.136597 168.08L-1.57452 166.17L-3.01244 168.08L-1.57452 169.99L-0.136597 168.08Z" fill="#005E00"/>
  <path d="M17.9393 168.08L16.5013 166.17L15.0634 168.08L16.5013 169.99L17.9393 168.08Z" fill="#005E00"/>
  <path d="M36.0149 168.08L34.577 166.17L33.1391 168.08L34.577 169.99L36.0149 168.08Z" fill="#005E00"/>
  <path d="M54.0907 168.08L52.6528 166.17L51.2149 168.08L52.6528 169.99L54.0907 168.08Z" fill="#005E00"/>
  <path d="M72.1664 168.08L70.7285 166.17L69.2906 168.08L70.7285 169.99L72.1664 168.08Z" fill="#005E00"/>
  <path d="M90.2422 168.08L88.8043 166.17L87.3664 168.08L88.8043 169.99L90.2422 168.08Z" fill="#005E00"/>
  <path d="M108.318 168.08L106.88 166.17L105.442 168.08L106.88 169.99L108.318 168.08Z" fill="#005E00"/>
  <path d="M126.394 168.08L124.956 166.17L123.518 168.08L124.956 169.99L126.394 168.08Z" fill="#005E00"/>
  <path d="M144.47 168.08L143.032 166.17L141.594 168.08L143.032 169.99L144.47 168.08Z" fill="#005E00"/>
  <path d="M162.545 168.08L161.108 166.17L159.67 168.08L161.108 169.99L162.545 168.08Z" fill="#005E00"/>
  <path d="M180.621 168.08L179.183 166.17L177.745 168.08L179.183 169.99L180.621 168.08Z" fill="#005E00"/>
  <path d="M198.697 168.08L197.259 166.17L195.821 168.08L197.259 169.99L198.697 168.08Z" fill="#005E00"/>
  <path d="M216.773 168.08L215.335 166.17L213.897 168.08L215.335 169.99L216.773 168.08Z" fill="#005E00"/>
  <path d="M234.848 168.08L233.411 166.17L231.973 168.08L233.411 169.99L234.848 168.08Z" fill="#005E00"/>
  <path d="M252.924 168.08L251.486 166.17L250.048 168.08L251.486 169.99L252.924 168.08Z" fill="#005E00"/>
  <path d="M271 168.08L269.562 166.17L268.124 168.08L269.562 169.99L271 168.08Z" fill="#005E00"/>
  <path d="M-54.364 192.09L-55.8019 190.18L-57.2398 192.09L-55.8019 194L-54.364 192.09Z" fill="#005E00"/>
  <path d="M-36.2881 192.09L-37.726 190.18L-39.164 192.09L-37.726 194L-36.2881 192.09Z" fill="#005E00"/>
  <path d="M-18.2124 192.09L-19.6504 190.18L-21.0883 192.09L-19.6504 194L-18.2124 192.09Z" fill="#005E00"/>
  <path d="M-0.136597 192.09L-1.57452 190.18L-3.01244 192.09L-1.57452 194L-0.136597 192.09Z" fill="#005E00"/>
  <path d="M17.9393 192.09L16.5013 190.18L15.0634 192.09L16.5013 194L17.9393 192.09Z" fill="#005E00"/>
  <path d="M36.0149 192.09L34.577 190.18L33.1391 192.09L34.577 194L36.0149 192.09Z" fill="#005E00"/>
  <path d="M54.0907 192.09L52.6528 190.18L51.2149 192.09L52.6528 194L54.0907 192.09Z" fill="#005E00"/>
  <path d="M72.1664 192.09L70.7285 190.18L69.2906 192.09L70.7285 194L72.1664 192.09Z" fill="#005E00"/>
  <path d="M90.2422 192.09L88.8043 190.18L87.3664 192.09L88.8043 194L90.2422 192.09Z" fill="#005E00"/>
  <path d="M108.318 192.09L106.88 190.18L105.442 192.09L106.88 194L108.318 192.09Z" fill="#005E00"/>
  <path d="M126.394 192.09L124.956 190.18L123.518 192.09L124.956 194L126.394 192.09Z" fill="#005E00"/>
  <path d="M144.47 192.09L143.032 190.18L141.594 192.09L143.032 194L144.47 192.09Z" fill="#005E00"/>
  <path d="M162.545 192.09L161.108 190.18L159.67 192.09L161.108 194L162.545 192.09Z" fill="#005E00"/>
  <path d="M180.621 192.09L179.183 190.18L177.745 192.09L179.183 194L180.621 192.09Z" fill="#005E00"/>
  <path d="M198.697 192.09L197.259 190.18L195.821 192.09L197.259 194L198.697 192.09Z" fill="#005E00"/>
  <path d="M216.773 192.09L215.335 190.18L213.897 192.09L215.335 194L216.773 192.09Z" fill="#005E00"/>
  <path d="M234.848 192.09L233.411 190.18L231.973 192.09L233.411 194L234.848 192.09Z" fill="#005E00"/>
  <path d="M252.924 192.09L251.486 190.18L250.048 192.09L251.486 194L252.924 192.09Z" fill="#005E00"/>
  <path d="M271 192.09L269.562 190.18L268.124 192.09L269.562 194L271 192.09Z" fill="#005E00"/>
</svg>